<?xml version="1.0" standalone="no"?>
<!DOCTYPE svg PUBLIC "-//W3C//DTD SVG 1.1//EN" "http://www.w3.org/Graphics/SVG/1.1/DTD/svg11.dtd" >
<svg xmlns="http://www.w3.org/2000/svg" xmlns:xlink="http://www.w3.org/1999/xlink" version="1.1">
<metadata>
Created by FontForge 20170731 at Sun Aug 12 14:44:23 2018
 By Aleksey,,,
</metadata>
<defs>
<font id="fontawesome-free" horiz-adv-x="512" >
  <font-face 
    font-family="Font Awesome 5 Free"
    font-weight="400"
    font-stretch="normal"
    units-per-em="512"
    panose-1="2 0 5 3 0 0 0 0 0 0"
    ascent="409"
    descent="-103"
    bbox="-1.04167 -64.5455 640.545 448.882"
    underline-thickness="0"
    underline-position="0"
    unicode-range="U+F004-F5C8"
  />
<missing-glyph horiz-adv-x="0" 
 />
    <glyph glyph-name=".notdef" horiz-adv-x="0" 
 />
    <glyph glyph-name=".notdef" horiz-adv-x="0" 
 />
    <glyph glyph-name=".null" horiz-adv-x="0" 
 />
    <glyph glyph-name="nonmarkingreturn" horiz-adv-x="170" 
 />
    <glyph glyph-name="heart" unicode="&#xf004;" 
d="M458 384q-28 24 -65 30t-73.5 -6t-63.5 -39q-42 42 -100.5 46.5t-101.5 -31.5q-36 -31 -48 -73t-1 -81.5t38 -67.5l175 -178q16 -16 38 -16t38 16l175 178q20 21 31.5 49.5t12 58.5t-13 60.5t-41.5 53.5zM435 196l-176 -178q-3 -4 -6 0l-176 178q-29 30 -29 73.5t36 77.5
q30 24 69.5 21t67.5 -32l35 -35l35 35q28 29 67.5 32t69.5 -21q36 -34 36 -77.5t-29 -73.5z" />
    <glyph glyph-name="star" unicode="&#xf005;" horiz-adv-x="576" 
d="M528 276l-146 22l-65 132q-9 18 -29 18t-29 -18l-65 -132l-146 -22q-20 -2 -26 -21t8 -33l106 -103l-25 -146q-3 -19 13 -31t33 -2l131 68l131 -68q17 -9 33 2.5t13 30.5l-25 146l106 103q14 14 8 33t-26 21zM389 136l23 -139l-124 66l-124 -66l23 139l-100 98l139 20
l62 126l62 -126l139 -20z" />
    <glyph glyph-name="user" unicode="&#xf007;" horiz-adv-x="448" 
d="M314 144q-12 0 -38 -8t-52 -8t-51.5 8t-38.5 8q-55 0 -94.5 -39.5t-39.5 -94.5v-26q0 -20 14 -34t34 -14h352q20 0 34 14t14 34v26q0 55 -39.5 94.5t-94.5 39.5zM400 -16h-352v26q0 35 25.5 60.5t60.5 25.5q3 0 31.5 -8t58.5 -8q23 0 42 4t31 8t17 4q35 0 60.5 -25.5
t25.5 -60.5v-26zM224 160q60 0 102 42t42 102t-42 102t-102 42t-102 -42t-42 -102t42 -102t102 -42zM224 400q40 0 68 -28t28 -68t-28 -68t-68 -28t-68 28t-28 68t28 68t68 28z" />
    <glyph glyph-name="clock" unicode="&#xf017;" 
d="M256 440q-103 0 -175.5 -72.5t-72.5 -175.5t72.5 -175.5t175.5 -72.5t175.5 72.5t72.5 175.5t-72.5 175.5t-175.5 72.5zM256 -8q-83 0 -141.5 58.5t-58.5 141.5t58.5 141.5t141.5 58.5t141.5 -58.5t58.5 -141.5t-58.5 -141.5t-141.5 -58.5zM318 96l-85 62q-2 2 -3.5 4.5
t-1.5 5.5v164q0 12 12 12h32q12 0 12 -12v-142l67 -48q9 -7 2 -17l-18 -26q-7 -10 -17 -3z" />
    <glyph glyph-name="list-alt" unicode="&#xf022;" 
d="M464 416h-416q-20 0 -34 -14t-14 -34v-352q0 -20 14 -34t34 -14h416q20 0 34 14t14 34v352q0 20 -14 34t-34 14zM458 16h-404q-6 0 -6 6v340q0 6 6 6h404q6 0 6 -6v-340q0 -6 -6 -6zM416 108v-24q0 -12 -12 -12h-200q-12 0 -12 12v24q0 12 12 12h200q12 0 12 -12z
M416 204v-24q0 -12 -12 -12h-200q-12 0 -12 12v24q0 12 12 12h200q12 0 12 -12zM416 300v-24q0 -12 -12 -12h-200q-12 0 -12 12v24q0 12 12 12h200q12 0 12 -12zM164 288q0 -15 -10.5 -25.5t-25.5 -10.5t-25.5 10.5t-10.5 25.5t10.5 25.5t25.5 10.5t25.5 -10.5t10.5 -25.5z
M164 192q0 -15 -10.5 -25.5t-25.5 -10.5t-25.5 10.5t-10.5 25.5t10.5 25.5t25.5 10.5t25.5 -10.5t10.5 -25.5zM164 96q0 -15 -10.5 -25.5t-25.5 -10.5t-25.5 10.5t-10.5 25.5t10.5 25.5t25.5 10.5t25.5 -10.5t10.5 -25.5z" />
    <glyph glyph-name="flag" unicode="&#xf024;" 
d="M336 368q-16 0 -36.5 5t-37 11t-41 11t-47.5 5q-41 0 -80 -15q1 3 1.5 7.5t0.5 7.5v6q-1 8 -5 15.5t-10 13t-13.5 9t-16.5 4.5q-21 1 -36 -13t-15 -35q0 -28 24 -42v-406q0 -7 4.5 -11.5t11.5 -4.5h16q7 0 11.5 4.5t4.5 11.5v83q32 15 60 22t68 7q22 0 73.5 -16t88.5 -16
q67 0 128 40q22 14 22 40v240q0 13 -6 23.5t-15.5 16.5t-21.5 8t-24 -4q-65 -28 -109 -28zM464 112q-19 -13 -46 -22.5t-56 -9.5q-30 0 -81 16t-81 16q-76 0 -128 -24v232q45 32 102 32q30 0 81 -16t81 -16q59 0 128 32v-240z" />
    <glyph glyph-name="bookmark" unicode="&#xf02e;" horiz-adv-x="384" 
d="M336 448h-288q-20 0 -34 -14t-14 -34v-464l192 112l192 -112v464q0 20 -14 34t-34 14zM336 20l-144 84l-144 -84v374q0 6 6 6h276q6 0 6 -6v-374z" />
    <glyph glyph-name="image" unicode="&#xf03e;" 
d="M464 384h-416q-20 0 -34 -14t-14 -34v-288q0 -20 14 -34t34 -14h416q20 0 34 14t14 34v288q0 20 -14 34t-34 14zM458 48h-404q-6 0 -6 6v276q0 6 6 6h404q6 0 6 -6v-276q0 -6 -6 -6zM128 296q-17 0 -28.5 -11.5t-11.5 -28.5t11.5 -28.5t28.5 -11.5t28.5 11.5t11.5 28.5
t-11.5 28.5t-28.5 11.5zM96 96h320v80l-88 88q-8 8 -16 0l-120 -120l-40 40q-8 8 -16 0l-40 -40v-48z" />
    <glyph glyph-name="edit" unicode="&#xf044;" horiz-adv-x="576" 
d="M402 103l32 32q4 4 9 2t5 -8v-145q0 -20 -14 -34t-34 -14h-352q-20 0 -34 14t-14 34v352q0 20 14 34t34 14h274q3 0 5.5 -2.5t2 -5.5t-2.5 -6l-32 -32q-1 -1 -2.5 -1.5t-2.5 -0.5h-242v-352h352v114q0 3 2 5zM559 305l-263 -263l-90 -10q-20 -2 -34 12t-12 34l10 90
l263 263q11 11 26 15t30 0t27 -15l43 -43q27 -28 13 -63q-5 -12 -13 -20zM460 274l-58 58l-186 -186l-7 -65l65 7zM525 354l-43 43q-2 2 -5 2.5t-5.5 0t-4.5 -2.5l-31 -31l58 -58l31 31q6 7 0 15z" />
    <glyph glyph-name="times-circle" unicode="&#xf057;" 
d="M256 440q-103 0 -175.5 -72.5t-72.5 -175.5t72.5 -175.5t175.5 -72.5t175.5 72.5t72.5 175.5t-72.5 175.5t-175.5 72.5zM256 -8q-83 0 -141.5 58.5t-58.5 141.5t58.5 141.5t141.5 58.5t141.5 -58.5t58.5 -141.5t-58.5 -141.5t-141.5 -58.5zM358 254l-62 -62l62 -62
q8 -9 0 -17l-23 -23q-8 -8 -17 0l-62 62l-62 -62q-9 -8 -17 0l-23 23q-8 8 0 17l62 62l-62 62q-8 9 0 17l23 23q8 8 17 0l62 -62l62 62q9 8 17 0l23 -23q8 -8 0 -17z" />
    <glyph glyph-name="check-circle" unicode="&#xf058;" 
d="M256 440q-103 0 -175.5 -72.5t-72.5 -175.5t72.5 -175.5t175.5 -72.5t175.5 72.5t72.5 175.5t-72.5 175.5t-175.5 72.5zM256 392q83 0 141.5 -58.5t58.5 -141.5t-58.5 -141.5t-141.5 -58.5t-141.5 58.5t-58.5 141.5t58.5 141.5t141.5 58.5zM396 262l-22 22q-9 9 -17 1
l-142 -141l-59 61q-9 8 -17 0l-23 -23q-9 -8 0 -17l91 -91q8 -9 17 0l172 171q9 8 0 17z" />
    <glyph glyph-name="question-circle" unicode="&#xf059;" 
d="M256 440q-103 0 -175.5 -72.5t-72.5 -175.5t72.5 -175.5t175.5 -72.5t175.5 72.5t72.5 175.5t-72.5 175.5t-175.5 72.5zM256 -8q-83 0 -141.5 58.5t-58.5 141.5t58.5 141.5t141.5 58.5t141.5 -58.5t58.5 -141.5t-58.5 -141.5t-141.5 -58.5zM363 247q0 -23 -11 -39
t-25 -23t-25 -15t-11 -16v-6q0 -2 -1 -4.5t-2.5 -4t-4 -2.5t-4.5 -1h-46q-2 0 -4.5 1t-4 2.5t-2.5 4t-1 4.5v9q0 12 4 22t13 18t14 11.5t17 9.5l12 7.5t8.5 6t6 7.5t1.5 9q0 12 -12.5 20t-27.5 8q-16 0 -26 -6.5t-23 -23.5q-7 -9 -16 -2l-28 21q-4 3 -4.5 8t1.5 9
q19 27 43 40.5t58 13.5q24 0 47.5 -11.5t38.5 -32t15 -45.5zM298 80q0 -17 -12.5 -29.5t-29.5 -12.5t-29.5 12.5t-12.5 29.5t12.5 29.5t29.5 12.5t29.5 -12.5t12.5 -29.5z" />
    <glyph glyph-name="eye" unicode="&#xf06e;" horiz-adv-x="576" 
d="M569 216q-43 73 -117.5 116.5t-163.5 43.5q-44 0 -86.5 -11.5t-78 -32.5t-65.5 -50.5t-51 -65.5q-7 -11 -7 -24t7 -24q43 -73 117.5 -116.5t163.5 -43.5t163.5 43.5t117.5 116.5q2 3 3.5 7t2.5 8.5t1 8.5q0 5 -2 12.5t-5 11.5zM288 56q-76 0 -139.5 37t-100.5 99
q34 57 91 93t125 42q16 -16 16 -39t-16.5 -39.5t-39.5 -16.5t-39.5 16.5t-16.5 39.5q-8 -15 -12 -31t-4 -33q0 -56 40 -96t96 -40t96 40t40 96q0 46 -28 83q85 -36 132 -115q-37 -62 -100.5 -99t-139.5 -37z" />
    <glyph glyph-name="eye-slash" unicode="&#xf070;" horiz-adv-x="576" 
d="M273 89q-61 7 -96.5 57t-20.5 110zM288 56q-76 0 -139.5 37t-100.5 99q33 56 88 92l-27 39q-64 -42 -102 -107q-7 -11 -7 -24t7 -24q43 -73 117.5 -116.5t163.5 -43.5q20 0 40 2l-32 46h-4h-4zM569 168q-51 -87 -143 -130l48 -69q3 -4 2 -8.5t-5 -7.5l-21 -15
q-4 -3 -9 -2t-7 5l-332 474q-3 4 -2 8.5t5 7.5l21 15q10 7 16 -3l56 -79q22 6 44.5 9t45.5 3q89 0 163.5 -43.5t117.5 -116.5q7 -11 7 -24q0 -5 -2 -12.5t-5 -11.5zM528 192q-34 57 -91 93t-125 42q-8 -8 -12 -18t-4 -21q0 -23 16.5 -39.5t39.5 -16.5t39.5 16.5t16.5 39.5
q33 -62 2 -125q-15 -28 -39 -47l27 -38q84 36 130 114z" />
    <glyph glyph-name="calendar-alt" unicode="&#xf073;" horiz-adv-x="448" 
d="M148 160h-40q-12 0 -12 12v40q0 12 12 12h40q12 0 12 -12v-40q0 -12 -12 -12zM256 172v40q0 12 -12 12h-40q-12 0 -12 -12v-40q0 -12 12 -12h40q12 0 12 12zM352 172v40q0 12 -12 12h-40q-12 0 -12 -12v-40q0 -12 12 -12h40q12 0 12 12zM256 76v40q0 12 -12 12h-40
q-12 0 -12 -12v-40q0 -12 12 -12h40q12 0 12 12zM160 76v40q0 12 -12 12h-40q-12 0 -12 -12v-40q0 -12 12 -12h40q12 0 12 12zM352 76v40q0 12 -12 12h-40q-12 0 -12 -12v-40q0 -12 12 -12h40q12 0 12 12zM448 336v-352q0 -20 -14 -34t-34 -14h-352q-20 0 -34 14t-14 34v352
q0 20 14 34t34 14h48v52q0 12 12 12h40q12 0 12 -12v-52h128v52q0 12 12 12h40q12 0 12 -12v-52h48q20 0 34 -14t14 -34zM400 -10v298h-352v-298q0 -6 6 -6h340q6 0 6 6z" />
    <glyph glyph-name="comment" unicode="&#xf075;" 
d="M256 416q-106 0 -181 -61t-75 -147q0 -70 53 -126q-7 -18 -18.5 -36.5t-19 -27t-9.5 -10.5q-10 -11 -4 -25.5t22 -14.5q74 0 139 46q46 -14 93 -14q106 0 181 61t75 147t-75 147t-181 61zM256 48q-40 0 -78 12l-23 7l-20 -13q-27 -20 -57 -30q12 21 20 41l10 28l-20 22
q-40 42 -40 93q0 66 61 113t147 47t147 -47t61 -113t-61 -113t-147 -47z" />
    <glyph glyph-name="folder" unicode="&#xf07b;" 
d="M464 320h-192l-64 64h-160q-20 0 -34 -14t-14 -34v-288q0 -20 14 -34t34 -14h416q20 0 34 14t14 34v224q0 20 -14 34t-34 14zM458 48h-404q-6 0 -6 6v276q0 2 2 4t4 2h134l64 -64h206q6 0 6 -6v-212q0 -6 -6 -6z" />
    <glyph glyph-name="folder-open" unicode="&#xf07c;" horiz-adv-x="576" 
d="M528 224h-48v48q0 20 -14 34t-34 14h-160l-64 64h-160q-20 0 -34 -14t-14 -34v-288q0 -20 14 -34t34 -14h400q11 0 23 6.5t18 16.5l80 128q15 23 1 48t-42 25zM54 336h134l64 -64h174q6 0 6 -6v-42h-280q-6 0 -12 -2t-11.5 -5t-10 -7t-7.5 -9l-63 -104v233q0 2 2 4t4 2z
M448 48h-376l77 128h379z" />
    <glyph glyph-name="chart-bar" unicode="&#xf080;" 
d="M500 48q12 0 12 -12v-24q0 -12 -12 -12h-488q-12 0 -12 12v360q0 12 12 12h24q12 0 12 -12v-324h452zM144 108v72q0 12 -12 12h-24q-12 0 -12 -12v-72q0 -12 12 -12h24q12 0 12 12zM240 108v200q0 12 -12 12h-24q-12 0 -12 -12v-200q0 -12 12 -12h24q12 0 12 12zM336 108
v136q0 12 -12 12h-24q-12 0 -12 -12v-136q0 -12 12 -12h24q12 0 12 12zM432 108v232q0 12 -12 12h-24q-12 0 -12 -12v-232q0 -12 12 -12h24q12 0 12 12z" />
    <glyph glyph-name="comments" unicode="&#xf086;" horiz-adv-x="576" 
d="M532 62q44 43 44 98q0 60 -50.5 104.5t-125.5 53.5q-16 29 -44.5 51t-67 34.5t-80.5 12.5q-86 0 -147 -47t-61 -113q0 -55 44 -98q-17 -34 -38 -55q-10 -11 -4 -25t21 -14q66 0 125 39q14 -3 29 -5q24 -44 75.5 -71t115.5 -27q30 0 60 7q60 -39 125 -39q15 0 21 14
q3 6 2 13t-6 12q-1 1 -6.5 7.5t-15 20t-16.5 27.5zM139 154l-17 -11q-21 -14 -43 -21l8 14l15 32l-24 24q-30 29 -30 64q0 46 47.5 79t112.5 33t112.5 -33t47.5 -79t-47.5 -79t-112.5 -33q-6 0 -12.5 0.5t-12.5 1t-12 1.5t-12 3zM498 96l-24 -24l15 -32l8 -14q-22 7 -43 21
l-17 11l-20 -4q-24 -6 -49 -6q-82 0 -131 50q76 8 127.5 53t51.5 105q0 3 -1 8v2q49 -11 81 -40.5t32 -65.5q0 -13 -5 -26t-11 -21.5t-14 -16.5z" />
    <glyph glyph-name="star-half" unicode="&#xf089;" horiz-adv-x="576" 
d="M288 63l-124 -66l23 139l-100 98l139 20l62 126v68q-20 0 -29 -18l-65 -132l-146 -21q-20 -3 -26 -22t8 -33l106 -103l-25 -145q-3 -20 13 -31.5t33 -2.5l131 68v55z" />
    <glyph glyph-name="lemon" unicode="&#xf094;" 
d="M484 420q-21 21 -48 26.5t-49 -7.5q-8 -4 -26.5 -5t-38.5 3t-48 2t-56 -7.5t-62 -24.5t-65 -50t-50.5 -65t-24.5 -62t-7 -56t2 -48t3 -38.5t-5 -26.5q-13 -22 -7.5 -49t26.5 -48t48 -26.5t49 7.5q8 4 26.5 5t38.5 -3t48 -2t56 7.5t62 24.5t65 50t50.5 65t24.5 62t7 56
t-2 48t-3 38.5t5 26.5q13 22 7.5 49t-26.5 48zM462 347q-11 -17 -11.5 -42.5t2.5 -52.5t1.5 -57t-17.5 -65t-50 -69t-69 -50t-65 -17.5t-57 1.5t-52.5 2.5t-42.5 -11.5q-18 -10 -41 14q-19 20 -10 37q11 17 11.5 42.5t-2.5 52.5t-1.5 57t17.5 65t50 69q29 28 58.5 44.5
t54.5 20t50.5 3.5t45.5 -3t41 -1t36 11q17 10 39 -11.5t12 -39.5zM292 338q1 -8 -4 -14.5t-14 -7.5q-41 -5 -89 -53t-53 -89q-1 -6 -4 -10t-8 -6.5t-10 -1.5q-9 1 -14 7.5t-4 14.5q3 27 21.5 57.5t43.5 55.5t55.5 43.5t57.5 21.5q17 2 21 -15q1 -2 1 -3z" />
    <glyph glyph-name="credit-card" unicode="&#xf09d;" horiz-adv-x="576" 
d="M528 416h-480q-13 0 -24 -6.5t-17.5 -17.5t-6.5 -24v-352q0 -20 14 -34t34 -14h480q20 0 34 14t14 34v352q0 13 -6.5 24t-17.5 17.5t-24 6.5zM54 368h468q6 0 6 -6v-42h-480v42q0 6 6 6zM522 16h-468q-6 0 -6 6v170h480v-170q0 -6 -6 -6zM192 116v-40q0 -12 -12 -12h-72
q-12 0 -12 12v40q0 12 12 12h72q12 0 12 -12zM384 116v-40q0 -12 -12 -12h-136q-12 0 -12 12v40q0 12 12 12h136q12 0 12 -12z" />
    <glyph glyph-name="hdd" unicode="&#xf0a0;" horiz-adv-x="576" 
d="M567 212l-105 151q-4 6 -10.5 10.5t-14 7.5t-14.5 3h-270q-10 0 -21.5 -6t-17.5 -15l-105 -151q-4 -5 -6.5 -13t-2.5 -14v-137q0 -20 14 -34t34 -14h480q20 0 34 14t14 34v137q0 15 -9 27zM153 336h270l78 -112h-426zM528 48h-480v128h480v-128zM496 112
q0 -13 -9.5 -22.5t-22.5 -9.5t-22.5 9.5t-9.5 22.5t9.5 22.5t22.5 9.5t22.5 -9.5t9.5 -22.5zM400 112q0 -13 -9.5 -22.5t-22.5 -9.5t-22.5 9.5t-9.5 22.5t9.5 22.5t22.5 9.5t22.5 -9.5t9.5 -22.5z" />
    <glyph glyph-name="hand-point-right" unicode="&#xf0a4;" 
d="M429 310h-86q2 11 2 23q0 7 -1 14t-3 13t-5 12t-7 11t-9 9.5t-10.5 8t-12 6.5t-13.5 5t-15 3t-16 1q-10 0 -18 -2.5t-14 -7.5t-11 -11t-9.5 -14t-8 -15t-8 -15t-7.5 -14q-9 -14 -26 -33v0q-21 -24 -30 -24h-3q-9 8 -22 8h-64q-13 0 -22.5 -8.5t-9.5 -20.5v-230
q0 -12 9.5 -20.5t22.5 -8.5h64q13 0 22 8h3q11 0 30.5 -10t45 -20t51.5 -10h21q46 0 72.5 25.5t27.5 65.5q20 29 16 63l8 22h36q34 0 58.5 24.5t24.5 58.5t-24.5 58.5t-58.5 24.5zM429 192h-91q10 -10 9.5 -29t-14.5 -32q4 -7 4.5 -15.5t-1.5 -16t-6.5 -13.5t-9.5 -9
q10 -61 -51 -61h-21q-15 0 -32 5.5t-29 12.5t-28.5 13.5t-30.5 8.5v176q27 4 59 40q20 22 31 40q3 5 7 12t6.5 13t6 12t6 10t5 6.5t4.5 2.5q12 0 21.5 -3t16 -11.5t6.5 -20.5q0 -20 -13.5 -42t-13.5 -29h159q14 0 24.5 -10.5t10.5 -24.5t-10.5 -24.5t-24.5 -10.5zM88 64
q0 -10 -7 -17t-17 -7t-17 7t-7 17t7 17t17 7t17 -7t7 -17z" />
    <glyph glyph-name="hand-point-left" unicode="&#xf0a5;" 
d="M0 227q0 -34 24.5 -58.5t58.5 -24.5h36q2 -12 8 -22q-4 -34 16 -63q0 -9 1.5 -17t4 -15.5t6.5 -14.5t9 -12.5t11.5 -10.5t14 -9t15.5 -6.5t17.5 -4t20.5 -1.5h21q34 0 75.5 20t51.5 20h3q9 -8 22 -8h64q13 0 22.5 8.5t9.5 20.5v230q0 12 -9.5 20.5t-22.5 8.5h-64
q-13 0 -22 -8h-3q-9 0 -30 24v0q-17 19 -26 33q-4 6 -13 24t-15 27.5t-19 18.5t-29 9q-21 0 -38 -6.5t-29 -17.5t-18.5 -26t-6.5 -33v-5t0.5 -4.5t0.5 -4.5t0.5 -4t0.5 -5h-86q-34 0 -58.5 -24.5t-24.5 -58.5zM48 227q0 14 10.5 24.5t24.5 10.5h159q0 7 -7 17.5t-13.5 24.5
t-6.5 29q0 35 44 35q4 0 9 -8.5t13 -24t13 -23.5q6 -10 13.5 -19.5t17.5 -20.5t17 -18t18.5 -13.5t23.5 -8.5v-176q-20 -2 -58 -21t-62 -19h-21q-61 0 -51 61q-12 7 -16.5 23t3.5 31q-14 13 -14.5 32t9.5 29h-91q-14 0 -24.5 10.5t-10.5 24.5zM448 88q10 0 17 -7t7 -17
t-7 -17t-17 -7t-17 7t-7 17t7 17t17 7z" />
    <glyph glyph-name="hand-point-up" unicode="&#xf0a6;" horiz-adv-x="448" 
d="M106 365v-86q-11 2 -23 2q-24 0 -42.5 -11t-29.5 -32t-11 -49q0 -13 5 -23.5t14.5 -18t18 -12.5t21.5 -11.5t20 -10.5q14 -9 33 -26v0q24 -21 24 -30v-3q-8 -9 -8 -22v-64q0 -9 4 -16t10.5 -11.5t14.5 -4.5h230q12 0 20.5 9.5t8.5 22.5v64q0 13 -8 22v3q0 10 20 51.5
t20 75.5v21q0 23 -7 42t-19 31.5t-28.5 19.5t-36.5 7q-14 10 -30.5 14t-32.5 2q-10 6 -22 8v36q0 34 -24.5 58.5t-58.5 24.5t-58.5 -24.5t-24.5 -58.5zM224 365v-91q10 10 29 9.5t32 -14.5q15 8 31 3.5t23 -16.5q61 10 61 -51v-21q0 -19 -9 -40t-19 -42t-12 -38h-176
q-4 27 -40 59q-23 20 -40 31q-8 5 -23.5 13t-24 13t-8.5 9q0 44 35 44q8 0 16 -2t14 -5t12 -6.5t10.5 -6.5t9.5 -5t9 -2v159q0 14 10.5 24.5t24.5 10.5q9 0 17 -5t13 -13t5 -17zM352 24q10 0 17 -7t7 -17t-7 -17t-17 -7t-17 7t-7 17t7 17t17 7z" />
    <glyph glyph-name="hand-point-down" unicode="&#xf0a7;" horiz-adv-x="448" 
d="M189 -64q34 0 58.5 24.5t24.5 58.5v36q3 1 7 2t8 2.5t7 3.5q16 -2 32.5 2t30.5 14q40 1 65.5 27.5t25.5 72.5v21q0 34 -20 75.5t-20 51.5v3q8 9 8 22v64q0 7 -2.5 12.5t-6 10t-9 7t-11.5 2.5h-230q-12 0 -20.5 -9.5t-8.5 -22.5v-64q0 -13 8 -22v-3q0 -3 -2.5 -7
t-7.5 -9.5t-14 -13.5v0q-19 -17 -33 -26q-6 -4 -24 -13t-27.5 -15t-18.5 -19t-9 -29q0 -28 11 -49t29.5 -32t42.5 -11q6 0 11.5 0.5t11.5 1.5v-86q0 -34 24.5 -58.5t58.5 -24.5zM189 -16q-24 0 -33 23q-2 7 -2 12v159q-3 0 -6.5 -1.5l-7 -3t-7.5 -4l-8 -5t-8.5 -5t-9.5 -4.5
t-11 -3t-13 -1q-12 0 -20.5 6.5t-11.5 16t-3 21.5q0 3 3.5 6t9.5 6.5t13 6.5t15.5 7.5t14.5 8.5q18 11 40 31q36 32 40 59h176q2 -20 21 -58t19 -62v-21q0 -20 -7 -32.5t-21 -17t-33 -1.5q-7 -12 -23 -16.5t-31 3.5q-13 -14 -32 -14.5t-29 9.5v-91q0 -4 -1.5 -9t-3.5 -8.5
t-5.5 -7t-7 -5.5t-8.5 -3.5t-9 -1.5zM328 384q0 10 7 17t17 7t17 -7t7 -17t-7 -17t-17 -7t-17 7t-7 17z" />
    <glyph glyph-name="copy" unicode="&#xf0c5;" horiz-adv-x="448" 
d="M434 382l-52 52q-2 2 -4.5 3.5t-5.5 3.5t-6 3l-6 2t-6 1.5t-6 0.5h-172q-20 0 -34 -14t-14 -34v-48h-80q-20 0 -34 -14t-14 -34v-320q0 -20 14 -34t34 -14h224q20 0 34 14t14 34v48h80q20 0 34 14t14 34v268q0 20 -14 34zM266 -16h-212q-6 0 -6 6v308q0 6 6 6h74v-224
q0 -20 14 -34t34 -14h96v-42q0 -6 -6 -6zM394 80h-212q-6 0 -6 6v308q0 6 6 6h106v-88q0 -10 7 -17t17 -7h88v-202q0 -6 -6 -6zM400 336h-64v64h10l4 -2l48 -48q2 -2 2 -4v-10z" />
    <glyph glyph-name="save" unicode="&#xf0c7;" horiz-adv-x="448" 
d="M434 318l-84 84q-14 14 -34 14h-268q-20 0 -34 -14t-14 -34v-352q0 -20 14 -34t34 -14h352q20 0 34 14t14 34v268q0 20 -14 34zM272 368v-80h-128v80h128zM394 16h-340q-6 0 -6 6v340q0 6 6 6h42v-104q0 -10 7 -17t17 -7h176q10 0 17 7t7 17v100l78 -78q2 -2 2 -4v-260
q0 -6 -6 -6zM224 216q-36 0 -62 -26t-26 -62t26 -62t62 -26t62 26t26 62t-26 62t-62 26zM224 88q-17 0 -28.5 11.5t-11.5 28.5t11.5 28.5t28.5 11.5t28.5 -11.5t11.5 -28.5t-11.5 -28.5t-28.5 -11.5z" />
    <glyph glyph-name="square" unicode="&#xf0c8;" horiz-adv-x="448" 
d="M400 416h-352q-20 0 -34 -14t-14 -34v-352q0 -20 14 -34t34 -14h352q20 0 34 14t14 34v352q0 20 -14 34t-34 14zM394 16h-340q-6 0 -6 6v340q0 6 6 6h340q6 0 6 -6v-340q0 -6 -6 -6z" />
    <glyph glyph-name="envelope" unicode="&#xf0e0;" 
d="M464 384h-416q-20 0 -34 -14t-14 -34v-288q0 -20 14 -34t34 -14h416q20 0 34 14t14 34v288q0 20 -14 34t-34 14zM464 336v-41q-18 -14 -49 -38.5t-86 -67.5q-2 -2 -11 -9.5t-15.5 -12.5t-15 -11t-16.5 -9t-15 -3q-6 0 -12.5 2.5t-13 6t-14 9t-12.5 9.5t-12 9.5t-9 8.5
q-100 78 -135 106v41h416zM48 48v186q35 -28 105 -83q2 -1 14.5 -11.5t19.5 -15.5t19.5 -13t25 -11.5t24.5 -3.5q10 0 21 3t19.5 7t19 11t16.5 11.5t15 12.5t12 10q70 55 105 83v-186h-416z" />
    <glyph glyph-name="lightbulb" unicode="&#xf0eb;" horiz-adv-x="384" 
d="M272 20v-28q0 -17 -16 -23v-9q0 -10 -7 -17t-17 -7h-80q-10 0 -17 7t-7 17v9q-16 6 -16 23v28q0 12 12 12h136q12 0 12 -12zM128 272q0 26 19 45t45 19q7 0 11.5 4.5t4.5 11.5t-4.5 11.5t-11.5 4.5q-40 0 -68 -28t-28 -68q0 -7 4.5 -11.5t11.5 -4.5t11.5 4.5t4.5 11.5z
M192 400q53 0 90.5 -37.5t37.5 -90.5q0 -14 -1.5 -25t-5 -18.5t-8 -15t-9.5 -13.5t-12 -14.5t-14 -17.5t-15 -24t-16 -32h-94q-14 32 -30.5 55.5t-26.5 33t-17 27t-7 44.5q0 53 37.5 90.5t90.5 37.5zM192 448q-73 0 -124.5 -51.5t-51.5 -124.5q0 -35 9 -59t21.5 -37
t30 -38.5t30.5 -58.5q5 -15 22 -15h126q17 0 22 15q13 33 30.5 58.5t30 38.5t21.5 37t9 59q0 73 -51.5 124.5t-124.5 51.5z" />
    <glyph glyph-name="bell" unicode="&#xf0f3;" horiz-adv-x="448" 
d="M439 86q-1 1 -3 4q-15 15 -23.5 27t-18.5 45.5t-10 77.5q0 38 -16.5 71t-45.5 55t-66 29v21q0 9 -4.5 16t-11.5 11.5t-16 4.5q-13 0 -22.5 -9.5t-9.5 -22.5v-21q-56 -11 -92 -54t-36 -101q0 -95 -47 -146q-2 -1 -4.5 -4t-3.5 -4q-9 -10 -9 -22q0 -13 9 -22.5t23 -9.5h384
q14 0 23 9.5t9 22.5q0 12 -9 22zM68 80q44 59 44 159v1q0 46 33 79t79 33t79 -33t33 -79v-1q0 -100 44 -159h-312zM224 -64q26 0 45 18.5t19 45.5h-128q0 -27 19 -45.5t45 -18.5z" />
    <glyph glyph-name="hospital" unicode="&#xf0f8;" horiz-adv-x="448" 
d="M128 204v40q0 12 12 12h40q12 0 12 -12v-40q0 -12 -12 -12h-40q-12 0 -12 12zM268 192h40q12 0 12 12v40q0 12 -12 12h-40q-12 0 -12 -12v-40q0 -12 12 -12zM192 108v40q0 12 -12 12h-40q-12 0 -12 -12v-40q0 -12 12 -12h40q12 0 12 12zM268 96h40q12 0 12 12v40
q0 12 -12 12h-40q-12 0 -12 -12v-40q0 -12 12 -12zM448 -28v-36h-448v36q0 12 12 12h20v379q0 9 7 15t17 6h88v40q0 10 7 17t17 7h112q10 0 17 -7t7 -17v-40h88q7 0 12.5 -3t8.5 -7.5t3 -10.5v-379h20q12 0 12 -12zM80 -15h112v67q0 12 12 12h40q12 0 12 -12v-67h112v351
h-64v-24q0 -10 -7 -17t-17 -7h-112q-10 0 -17 7t-7 17v24h-64v-351zM266 384h-26v26q0 6 -6 6h-20q-6 0 -6 -6v-26h-26q-6 0 -6 -6v-20q0 -6 6 -6h26v-26q0 -6 6 -6h20q6 0 6 6v26h26q6 0 6 6v20q0 6 -6 6z" />
    <glyph glyph-name="plus-square" unicode="&#xf0fe;" horiz-adv-x="448" 
d="M352 208v-32q0 -12 -12 -12h-88v-88q0 -12 -12 -12h-32q-12 0 -12 12v88h-88q-12 0 -12 12v32q0 12 12 12h88v88q0 12 12 12h32q12 0 12 -12v-88h88q12 0 12 -12zM448 368v-352q0 -20 -14 -34t-34 -14h-352q-20 0 -34 14t-14 34v352q0 20 14 34t34 14h352q20 0 34 -14
t14 -34zM400 22v340q0 6 -6 6h-340q-6 0 -6 -6v-340q0 -6 6 -6h340q6 0 6 6z" />
    <glyph glyph-name="circle" unicode="&#xf111;" 
d="M256 440q-103 0 -175.5 -72.5t-72.5 -175.5t72.5 -175.5t175.5 -72.5t175.5 72.5t72.5 175.5t-72.5 175.5t-175.5 72.5zM256 -8q-83 0 -141.5 58.5t-58.5 141.5t58.5 141.5t141.5 58.5t141.5 -58.5t58.5 -141.5t-58.5 -141.5t-141.5 -58.5z" />
    <glyph glyph-name="smile" unicode="&#xf118;" horiz-adv-x="496" 
d="M248 440q-103 0 -175.5 -72.5t-72.5 -175.5t72.5 -175.5t175.5 -72.5t175.5 72.5t72.5 175.5t-72.5 175.5t-175.5 72.5zM248 -8q-83 0 -141.5 58.5t-58.5 141.5t58.5 141.5t141.5 58.5t141.5 -58.5t58.5 -141.5t-58.5 -141.5t-141.5 -58.5zM168 208q13 0 22.5 9.5
t9.5 22.5t-9.5 22.5t-22.5 9.5t-22.5 -9.5t-9.5 -22.5t9.5 -22.5t22.5 -9.5zM328 208q13 0 22.5 9.5t9.5 22.5t-9.5 22.5t-22.5 9.5t-22.5 -9.5t-9.5 -22.5t9.5 -22.5t22.5 -9.5zM332 135q-33 -39 -84 -39t-84 39q-6 8 -16 9t-18 -6q-5 -4 -7 -10t-1 -12t5 -11
q47 -57 121 -57t121 57q6 7 5 17t-8 16q-5 5 -11.5 6t-12.5 -1.5t-10 -7.5z" />
    <glyph glyph-name="frown" unicode="&#xf119;" horiz-adv-x="496" 
d="M248 440q-103 0 -175.5 -72.5t-72.5 -175.5t72.5 -175.5t175.5 -72.5t175.5 72.5t72.5 175.5t-72.5 175.5t-175.5 72.5zM248 -8q-83 0 -141.5 58.5t-58.5 141.5t58.5 141.5t141.5 58.5t141.5 -58.5t58.5 -141.5t-58.5 -141.5t-141.5 -58.5zM168 208q13 0 22.5 9.5
t9.5 22.5t-9.5 22.5t-22.5 9.5t-22.5 -9.5t-9.5 -22.5t9.5 -22.5t22.5 -9.5zM328 272q-13 0 -22.5 -9.5t-9.5 -22.5t9.5 -22.5t22.5 -9.5t22.5 9.5t9.5 22.5t-9.5 22.5t-22.5 9.5zM248 144q-63 0 -104 -49q-3 -3 -4.5 -8t-1 -9.5t3 -8.5t5.5 -7q8 -7 18 -6t16 9q6 7 14 13
t16.5 10t17.5 6t19 2q41 0 67 -31q6 -8 16 -9t18 6q7 6 8 16t-5 17q-20 24 -47 36.5t-57 12.5z" />
    <glyph glyph-name="meh" unicode="&#xf11a;" horiz-adv-x="496" 
d="M248 440q-103 0 -175.5 -72.5t-72.5 -175.5t72.5 -175.5t175.5 -72.5t175.5 72.5t72.5 175.5t-72.5 175.5t-175.5 72.5zM248 -8q-83 0 -141.5 58.5t-58.5 141.5t58.5 141.5t141.5 58.5t141.5 -58.5t58.5 -141.5t-58.5 -141.5t-141.5 -58.5zM168 208q13 0 22.5 9.5
t9.5 22.5t-9.5 22.5t-22.5 9.5t-22.5 -9.5t-9.5 -22.5t9.5 -22.5t22.5 -9.5zM328 272q-13 0 -22.5 -9.5t-9.5 -22.5t9.5 -22.5t22.5 -9.5t22.5 9.5t9.5 22.5t-9.5 22.5t-22.5 9.5zM336 128h-176q-10 0 -17 -7t-7 -17t7 -17t17 -7h176q10 0 17 7t7 17t-7 17t-17 7z" />
    <glyph glyph-name="keyboard" unicode="&#xf11c;" horiz-adv-x="576" 
d="M528 384h-480q-20 0 -34 -14t-14 -34v-288q0 -20 14 -34t34 -14h480q20 0 34 14t14 34v288q0 20 -14 34t-34 14zM536 48q0 -8 -8 -8h-480q-8 0 -8 8v288q0 8 8 8h480q8 0 8 -8v-288zM170 178v28q0 12 -12 12h-28q-12 0 -12 -12v-28q0 -12 12 -12h28q12 0 12 12zM266 178
v28q0 12 -12 12h-28q-12 0 -12 -12v-28q0 -12 12 -12h28q12 0 12 12zM362 178v28q0 12 -12 12h-28q-12 0 -12 -12v-28q0 -12 12 -12h28q12 0 12 12zM458 178v28q0 12 -12 12h-28q-12 0 -12 -12v-28q0 -12 12 -12h28q12 0 12 12zM122 96v28q0 12 -12 12h-28q-12 0 -12 -12
v-28q0 -12 12 -12h28q12 0 12 12zM506 96v28q0 12 -12 12h-28q-12 0 -12 -12v-28q0 -12 12 -12h28q12 0 12 12zM122 260v28q0 12 -12 12h-28q-12 0 -12 -12v-28q0 -12 12 -12h28q12 0 12 12zM218 260v28q0 12 -12 12h-28q-12 0 -12 -12v-28q0 -12 12 -12h28q12 0 12 12z
M314 260v28q0 12 -12 12h-28q-12 0 -12 -12v-28q0 -12 12 -12h28q12 0 12 12zM410 260v28q0 12 -12 12h-28q-12 0 -12 -12v-28q0 -12 12 -12h28q12 0 12 12zM506 260v28q0 12 -12 12h-28q-12 0 -12 -12v-28q0 -12 12 -12h28q12 0 12 12zM408 102v16q0 12 -12 12h-216
q-12 0 -12 -12v-16q0 -12 12 -12h216q12 0 12 12z" />
    <glyph glyph-name="calendar" unicode="&#xf133;" horiz-adv-x="448" 
d="M400 384h-48v52q0 12 -12 12h-40q-12 0 -12 -12v-52h-128v52q0 12 -12 12h-40q-12 0 -12 -12v-52h-48q-20 0 -34 -14t-14 -34v-352q0 -20 14 -34t34 -14h352q20 0 34 14t14 34v352q0 20 -14 34t-34 14zM394 -16h-340q-6 0 -6 6v298h352v-298q0 -6 -6 -6z" />
    <glyph glyph-name="play-circle" unicode="&#xf144;" 
d="M372 210l-176 107q-12 7 -24 0t-12 -21v-208q0 -14 12 -21t24 0l176 101q12 7 12 21t-12 21zM504 192q0 103 -72.5 175.5t-175.5 72.5t-175.5 -72.5t-72.5 -175.5t72.5 -175.5t175.5 -72.5t175.5 72.5t72.5 175.5zM56 192q0 83 58.5 141.5t141.5 58.5t141.5 -58.5
t58.5 -141.5t-58.5 -141.5t-141.5 -58.5t-141.5 58.5t-58.5 141.5z" />
    <glyph glyph-name="minus-square" unicode="&#xf146;" horiz-adv-x="448" 
d="M108 164q-12 0 -12 12v32q0 12 12 12h232q12 0 12 -12v-32q0 -12 -12 -12h-232zM448 368v-352q0 -20 -14 -34t-34 -14h-352q-20 0 -34 14t-14 34v352q0 20 14 34t34 14h352q20 0 34 -14t14 -34zM400 22v340q0 6 -6 6h-340q-6 0 -6 -6v-340q0 -6 6 -6h340q6 0 6 6z" />
    <glyph glyph-name="check-square" unicode="&#xf14a;" horiz-adv-x="448" 
d="M400 416h-352q-20 0 -34 -14t-14 -34v-352q0 -20 14 -34t34 -14h352q20 0 34 14t14 34v352q0 20 -14 34t-34 14zM400 16h-352v352h352v-352zM364 258l-172 -171q-3 -3 -6 -3.5t-6 0t-5 3.5l-91 91q-9 9 0 17l23 23q8 8 17 0l59 -61l142 140q8 9 17 0l22 -22q9 -9 0 -17z
" />
    <glyph glyph-name="share-square" unicode="&#xf14d;" horiz-adv-x="576" 
d="M562 290l-144 144q-23 22 -52.5 10t-29.5 -44v-57q-73 -3 -121 -18q-53 -17 -83 -50q-36 -40 -36 -99q0 -45 22.5 -82.5t62.5 -62.5q28 -17 55 3.5t16 52.5q-8 24 -8 40t21.5 25.5t70.5 13.5v-54q0 -32 29.5 -44.5t52.5 10.5l144 144q9 9 12.5 21.5t0 25t-12.5 21.5z
M384 112v104q-30 -1 -53 -2.5t-45.5 -6t-38 -11t-28 -17.5t-18 -26t-4.5 -35.5t9 -45.5q-62 39 -62 104q0 26 9.5 46.5t28.5 33t40 21t51 12.5t54 5.5t57 1.5v104l144 -144zM409 28q11 3 21 9q6 4 12 0.5t6 -10.5v-43q0 -20 -14 -34t-34 -14h-352q-20 0 -34 14t-14 34v352
q0 20 14 34t34 14h132q12 0 12 -12v-4q0 -2 -0.5 -4t-1.5 -3.5t-2.5 -2.5t-3.5 -2q-20 -8 -38 -18l-6 -2h-86q-6 0 -6 -6v-340q0 -6 6 -6h340q6 0 6 6v26q0 9 9 12z" />
    <glyph glyph-name="compass" unicode="&#xf14e;" horiz-adv-x="496" 
d="M348 318l-144 -66q-11 -5 -16 -16l-66 -144q-6 -12 4 -22t22 -4l144 66q5 2 9.5 6.5t6.5 9.5l66 144q4 8 0.5 16t-10.5 10.5t-16 -0.5zM270.5 169.5q-6.5 -6.5 -14.5 -8.5t-16 0t-14.5 8.5t-8.5 14.5t0 16t8 15q10 9 23 9t23 -9q6 -7 8 -15t0 -16t-8.5 -14.5zM248 440
q-103 0 -175.5 -72.5t-72.5 -175.5t72.5 -175.5t175.5 -72.5t175.5 72.5t72.5 175.5t-72.5 175.5t-175.5 72.5zM248 -8q-83 0 -141.5 58.5t-58.5 141.5t58.5 141.5t141.5 58.5t141.5 -58.5t58.5 -141.5t-58.5 -141.5t-141.5 -58.5z" />
    <glyph glyph-name="caret-square-down" unicode="&#xf150;" horiz-adv-x="448" 
d="M125 240h198q8 0 11 -7.5t-3 -12.5l-99 -99q-8 -8 -16 0l-99 99q-6 5 -3 12.5t11 7.5zM448 368v-352q0 -20 -14 -34t-34 -14h-352q-20 0 -34 14t-14 34v352q0 20 14 34t34 14h352q20 0 34 -14t14 -34zM400 22v340q0 6 -6 6h-340q-6 0 -6 -6v-340q0 -6 6 -6h340q6 0 6 6z
" />
    <glyph glyph-name="caret-square-up" unicode="&#xf151;" horiz-adv-x="448" 
d="M323 144h-198q-8 0 -11 7.5t3 12.5l99 99q8 8 16 0l99 -99q6 -5 3 -12.5t-11 -7.5zM448 368v-352q0 -20 -14 -34t-34 -14h-352q-20 0 -34 14t-14 34v352q0 20 14 34t34 14h352q20 0 34 -14t14 -34zM400 22v340q0 6 -6 6h-340q-6 0 -6 -6v-340q0 -6 6 -6h340q6 0 6 6z" />
    <glyph glyph-name="caret-square-right" unicode="&#xf152;" horiz-adv-x="448" 
d="M176 93v198q0 8 7.5 11t12.5 -3l99 -99q8 -8 0 -16l-99 -99q-5 -6 -12.5 -3t-7.5 11zM448 368v-352q0 -20 -14 -34t-34 -14h-352q-20 0 -34 14t-14 34v352q0 20 14 34t34 14h352q20 0 34 -14t14 -34zM400 22v340q0 6 -6 6h-340q-6 0 -6 -6v-340q0 -6 6 -6h340q6 0 6 6z
" />
    <glyph glyph-name="file" unicode="&#xf15b;" horiz-adv-x="384" 
d="M370 350l-84 84q-14 14 -34 14h-204q-20 0 -34 -14t-14 -34v-416q0 -20 14 -34t34 -14h288q20 0 34 14t14 34v332q0 20 -14 34zM332 320h-76v76zM48 -16v416h160v-104q0 -10 7 -17t17 -7h104v-288h-288z" />
    <glyph glyph-name="file-alt" unicode="&#xf15c;" horiz-adv-x="384" 
d="M288 200v-28q0 -12 -12 -12h-168q-12 0 -12 12v28q0 12 12 12h168q12 0 12 -12zM276 128h-168q-12 0 -12 -12v-28q0 -12 12 -12h168q12 0 12 12v28q0 12 -12 12zM384 316v-332q0 -20 -14 -34t-34 -14h-288q-20 0 -34 14t-14 34v416q0 20 14 34t34 14h204q20 0 34 -14
l84 -84q14 -14 14 -34zM256 396v-76h76zM336 -16v288h-104q-10 0 -17 7t-7 17v104h-160v-416h288z" />
    <glyph glyph-name="thumbs-up" unicode="&#xf164;" 
d="M466 161q4 6 6.5 11.5t4 12t2.5 13t1 13.5q0 8 -1.5 16.5t-5 16t-8 14.5t-10 12.5t-12.5 10.5t-15 8.5t-16.5 5.5t-17.5 2h-36q9 23 9 46q0 53 -25.5 79t-70.5 26q-27 0 -41.5 -23.5t-20.5 -52.5t-9 -33q-11 -11 -35 -42.5t-34 -40.5h-99q-13 0 -22.5 -9.5t-9.5 -22.5
v-240q0 -13 9.5 -22.5t22.5 -9.5h64q5 0 10.5 2t9.5 5t7 7.5t4 9.5q10 0 21.5 -3t21.5 -7.5t24 -10t29 -9.5t36.5 -7t45.5 -3h11h11q28 0 50 7t35.5 20t20.5 30t7 38q22 31 17 67q16 30 9 63zM405 107q8 -16 3 -33t-17 -24q10 -66 -54 -66h-37q-38 0 -92.5 19t-79.5 19v186
h11q12 0 29 17.5t37 44.5t28 35q13 13 18 32.5t9 37t11 25.5q14 0 23.5 -4t14 -9t7 -14t3 -14.5t0.5 -15.5q0 -16 -7.5 -32t-14.5 -31.5t-7 -30.5h104q16 0 27 -12t11 -26t-7.5 -26t-14.5 -12q5 -5 7.5 -13.5t2.5 -17t-4 -18t-11 -17.5zM88 16q0 -10 -7 -17t-17 -7t-17 7
t-7 17t7 17t17 7t17 -7t7 -17z" />
    <glyph glyph-name="thumbs-down" unicode="&#xf165;" 
d="M466 223q7 33 -9 63q5 36 -17 67q-1 44 -29 69.5t-84 25.5h-11h-11q-35 0 -65.5 -6.5t-47 -14t-34 -13.5t-30.5 -6h-11q-9 8 -21 8h-64q-13 0 -22.5 -9.5t-9.5 -22.5v-240q0 -13 9.5 -22.5t22.5 -9.5h64q18 0 28 16h7q10 -9 34 -40.5t35 -42.5q3 -4 9 -33t20.5 -52.5
t41.5 -23.5q30 0 51 11t33 34.5t12 59.5q0 23 -9 46h36q36 0 61 26t25 60q0 14 -3.5 26t-10.5 24zM64 152q-10 0 -17 7t-7 17t7 17t17 7t17 -7t7 -17t-7 -17t-17 -7zM394 135h-104q0 -15 7 -30.5t14.5 -31.5t7.5 -32q0 -13 -1 -20t-5 -17t-14.5 -15t-27.5 -5q-4 4 -7 11.5
t-4.5 15t-3.5 17t-4.5 18t-7 17.5t-11 15.5t-17 20t-20 26t-19.5 24.5t-20 19.5t-18 7.5h-11v186q25 0 79.5 19t92.5 19h37q64 0 54 -66q12 -7 17 -24t-3 -33q5 -5 8.5 -11t5 -12t1.5 -12.5t-1 -12t-3.5 -10t-5.5 -8.5q7 0 14.5 -12t7.5 -26q0 -25 -24 -35q-7 -3 -14 -3z
" />
    <glyph glyph-name="sun" unicode="&#xf185;" 
d="M220 -40l-20 49q-1 3 -4 3q-1 0 -2 -1l-45 -28q-25 -15 -47 5q-16 16 -11 37l12 52v1q0 4 -3 4l-54 4q-16 1 -26.5 13.5t-9 28.5t13.5 26l41 35q1 1 1 3v2t-1 1l-41 35q-12 10 -13.5 26t9 28.5t26.5 13.5l54 4q2 1 3 4v1l-12 52q-7 25 14.5 40t43.5 2l45 -28q0 -1 1 -1h1
q3 0 4 3l20 49q3 7 7.5 12t10 7.5t12 4t13 0t12 -4t10 -7.5t7.5 -12l20 -49q1 -3 4 -3q1 0 2 1l45 28q22 13 43.5 -2t14.5 -40l-12 -52v-1q0 -4 3 -4l53 -4q26 -2 34.5 -27t-11.5 -41l-41 -35q-2 -1 -2 -3t2 -3l41 -35q12 -10 13.5 -26t-9 -28.5t-27.5 -13.5l-53 -4
q-3 0 -3 -4v-1l12 -52q4 -16 -4.5 -29.5t-23 -17t-30.5 4.5l-45 28q-1 1 -2 1q-3 0 -4 -3l-20 -49q-11 -26 -40 -24q-23 4 -32 24zM237 25l19 -47l19 47q8 19 27.5 25t36.5 -5l43 -26l-12 49q-5 20 7 36.5t32 17.5l51 4l-39 32q-16 14 -16 34t16 34l39 32l-51 4
q-13 1 -23.5 9t-14.5 20t-1 25l12 49l-43 -26q-17 -11 -36.5 -4.5t-27.5 24.5l-19 47l-19 -47q-8 -19 -27.5 -25t-36.5 5l-43 26l12 -49q3 -13 -1 -25t-14.5 -20t-23.5 -9l-51 -4l39 -32q16 -14 15.5 -34t-15.5 -34l-39 -32l51 -4q20 -1 32 -17.5t7 -36.5l-12 -49l43 26
q12 7 24.5 7t23.5 -7.5t16 -19.5zM256 64q-53 0 -90.5 37.5t-37.5 90.5t37.5 90.5t90.5 37.5t90.5 -37.5t37.5 -90.5t-37.5 -90.5t-90.5 -37.5zM256 272q-33 0 -56.5 -23.5t-23.5 -56.5t23.5 -56.5t56.5 -23.5t56.5 23.5t23.5 56.5t-23.5 56.5t-56.5 23.5z" />
    <glyph glyph-name="moon" unicode="&#xf186;" 
d="M279 -64q24 0 46.5 4t44 12t40.5 19.5t36.5 26.5t31.5 33q21 26 4 54.5t-50 22.5q-62 -12 -110.5 28t-48.5 103q0 36 18.5 67t49.5 49q19 10 23.5 30t-6.5 37.5t-32 21.5q-23 4 -47 4q-111 0 -187 -82q-68 -74 -69 -174q0 -106 75 -181t181 -75zM279 400q10 0 19.5 -1
t18.5 -2q-27 -16 -47.5 -40t-32.5 -54.5t-12 -63.5q0 -56 30.5 -101t80.5 -66t105 -11q-19 -24 -44 -41t-55.5 -26.5t-62.5 -9.5q-34 0 -65.5 10.5t-57 29.5t-45 45t-30 57.5t-10.5 65.5q0 86 61 147t147 61z" />
    <glyph glyph-name="caret-square-left" unicode="&#xf191;" horiz-adv-x="448" 
d="M272 291v-198q0 -8 -7.5 -11t-12.5 3l-99 99q-8 8 0 16l99 99q5 6 12.5 3t7.5 -11zM448 368v-352q0 -20 -14 -34t-34 -14h-352q-20 0 -34 14t-14 34v352q0 20 14 34t34 14h352q20 0 34 -14t14 -34zM400 22v340q0 6 -6 6h-340q-6 0 -6 -6v-340q0 -6 6 -6h340q6 0 6 6z" />
    <glyph glyph-name="dot-circle" unicode="&#xf192;" 
d="M256 392q83 0 141.5 -58.5t58.5 -141.5t-58.5 -141.5t-141.5 -58.5t-141.5 58.5t-58.5 141.5t58.5 141.5t141.5 58.5zM256 440q-103 0 -175.5 -72.5t-72.5 -175.5t72.5 -175.5t175.5 -72.5t175.5 72.5t72.5 175.5t-72.5 175.5t-175.5 72.5zM256 272q-33 0 -56.5 -23.5
t-23.5 -56.5t23.5 -56.5t56.5 -23.5t56.5 23.5t23.5 56.5t-23.5 56.5t-56.5 23.5z" />
    <glyph glyph-name="building" unicode="&#xf1ad;" horiz-adv-x="448" 
d="M128 300v40q0 12 12 12h40q12 0 12 -12v-40q0 -12 -12 -12h-40q-12 0 -12 12zM268 288h40q12 0 12 12v40q0 12 -12 12h-40q-12 0 -12 -12v-40q0 -12 12 -12zM140 192h40q12 0 12 12v40q0 12 -12 12h-40q-12 0 -12 -12v-40q0 -12 12 -12zM268 192h40q12 0 12 12v40
q0 12 -12 12h-40q-12 0 -12 -12v-40q0 -12 12 -12zM192 108v40q0 12 -12 12h-40q-12 0 -12 -12v-40q0 -12 12 -12h40q12 0 12 12zM268 96h40q12 0 12 12v40q0 12 -12 12h-40q-12 0 -12 -12v-40q0 -12 12 -12zM448 -28v-36h-448v36q0 12 12 12h20v440q0 10 7 17t17 7h336
q7 0 12.5 -3t8.5 -8.5t3 -12.5v-440h20q12 0 12 -12zM80 -15h112v67q0 12 12 12h40q12 0 12 -12v-67h112v414l-288 1v-415z" />
    <glyph glyph-name="file-pdf" unicode="&#xf1c1;" horiz-adv-x="384" 
d="M370 350l-84 84q-14 14 -34 14h-204q-20 0 -34 -14t-14 -34v-416q0 -20 14 -34t34 -14h288q20 0 34 14t14 34v332q0 20 -14 34zM332 320h-76v76zM48 -16v416h160v-104q0 -10 7 -17t17 -7h104v-288h-288zM298 128q-13 13 -64 6q-25 15 -37 46q10 42 5 56q-3 19 -21 20
t-21 -14q-6 -19 7 -67q-20 -46 -36 -74q-46 -24 -51 -46q-2 -14 11 -21q27 -14 65 52q54 17 69 20q31 -17 56 -17q12 0 18 7.5t5.5 16.5t-6.5 15zM100 50q4 10 30 35q-8 -14 -15.5 -22.5t-11 -11t-3.5 -1.5zM182 240q5 0 5 -17t-3 -23q-3 6 -3.5 16t-0.5 17t2 7zM157 104
q12 20 25 55q6 -12 14 -21t16 -15q-10 -2 -55 -19zM289 109q-1 -1 -2.5 -1.5t-11 1.5t-23.5 8q37 1 37 -8z" />
    <glyph glyph-name="file-word" unicode="&#xf1c2;" horiz-adv-x="384" 
d="M370 350l-84 84q-14 14 -34 14h-204q-20 0 -34 -14t-14 -34v-416q0 -20 14 -34t34 -14h288q20 0 34 14t14 34v332q0 20 -14 34zM332 320h-76v76zM48 -16v416h160v-104q0 -10 7 -17t17 -7h104v-288h-288zM268 192q-10 0 -12 -10q-20 -97 -21 -103v1v3v1q-1 3 -9 36
q-1 4 -1.5 6.5t-1.5 7t-2 8t-2 8.5t-2.5 10t-2.5 11t-3 12q-2 9 -12 9h-13q-2 0 -4 -0.5t-3.5 -2t-2.5 -3t-2 -3.5q-24 -98 -24 -104q-1 3 -1 4q0 3 -19 99q-2 10 -12 10h-17q-5 0 -9 -4.5t-2 -10.5q3 -14 10 -42t13.5 -55.5t9.5 -38.5q2 -9 12 -9h25q9 0 11 9l18 72
q3 9 3 17l3 -17q15 -58 18 -72q2 -9 12 -9h24q10 0 12 9q25 98 35 136q1 6 -2.5 10.5t-9.5 4.5h-16z" />
    <glyph glyph-name="file-excel" unicode="&#xf1c3;" horiz-adv-x="384" 
d="M370 350l-84 84q-14 14 -34 14h-204q-20 0 -34 -14t-14 -34v-416q0 -20 14 -34t34 -14h288q20 0 34 14t14 34v332q0 20 -14 34zM332 320h-76v76zM48 -16v416h160v-104q0 -10 7 -17t17 -7h104v-288h-288zM260 224h-29q-7 0 -10 -6q-13 -23 -18.5 -34t-10.5 -24
q-19 40 -28 58q-5 5 -11 6h-29q-7 0 -10.5 -6t0.5 -12l46 -78l-46 -78q-2 -4 -1.5 -8t3.5 -7t8 -3h29q7 0 10 6q17 31 29 58q6 -11 8.5 -18t6 -14t14.5 -26q3 -6 10 -6h29q7 0 10.5 6t-0.5 12l-46 78q11 17 46 78q2 4 1.5 8t-4 7t-7.5 3z" />
    <glyph glyph-name="file-powerpoint" unicode="&#xf1c4;" horiz-adv-x="384" 
d="M370 350l-84 84q-14 14 -34 14h-204q-20 0 -34 -14t-14 -34v-416q0 -20 14 -34t34 -14h288q20 0 34 14t14 34v332q0 20 -14 34zM332 320h-76v76zM48 -16v416h160v-104q0 -10 7 -17t17 -7h104v-288h-288zM120 44v168q0 12 12 12h69q18 0 32.5 -8.5t22.5 -23.5t8 -34
q0 -11 -2 -20t-5 -15.5t-8.5 -12t-10 -8.5t-12 -5.5t-12.5 -3.5t-13 -1.5t-12 -0.5h-11.5h-9.5v-47q0 -5 -3.5 -8.5t-8.5 -3.5h-24q-12 0 -12 12zM168 131h24q11 1 18 8q3 3 4.5 8t1.5 10.5t-1.5 10.5t-4.5 8q-7 7 -18 7h-24v-52z" />
    <glyph glyph-name="file-image" unicode="&#xf1c5;" horiz-adv-x="384" 
d="M370 350l-84 84q-14 14 -34 14h-204q-20 0 -34 -14t-14 -34v-416q0 -20 14 -34t34 -14h288q20 0 34 14t14 34v332q0 20 -14 34zM332 320h-76v76zM48 -16v416h160v-104q0 -10 7 -17t17 -7h104v-288h-288zM80 32h224v128l-24 24q-8 8 -16 0l-88 -88l-40 40q-8 8 -16 0
l-40 -40v-64zM128 272q-20 0 -34 -14t-14 -34t14 -34t34 -14t34 14t14 34t-14 34t-34 14z" />
    <glyph glyph-name="file-archive" unicode="&#xf1c6;" horiz-adv-x="384" 
d="M370 350l-84 84q-14 14 -34 14h-204q-20 0 -34 -14t-14 -34v-416q0 -20 14 -34t34 -14h288q20 0 34 14t14 34v332q0 20 -14 34zM256 396l76 -76h-76v76zM336 -16h-288v416h80v-16h32v16h48v-104q0 -10 7 -17t17 -7h104v-288zM192 352h-32v32h32v-32zM160 352v-32h-32v32
h32zM160 288v-32h-32v32h32zM192 288h-32v32h32v-32zM194 182q-2 10 -12 10h-22v32h-32v-32l-19 -97q-5 -24 10.5 -43.5t40.5 -19.5t40.5 19t10.5 44zM160.5 58q-6.5 0 -12.5 2t-10.5 5.5t-7 8.5t-2.5 11q0 11 9.5 19t22.5 8q9 0 16.5 -3.5t12 -10t4.5 -13.5q0 -6 -2.5 -11
t-7 -8.5t-10.5 -5.5t-12.5 -2zM192 224h-32v32h32v-32z" />
    <glyph glyph-name="file-audio" unicode="&#xf1c7;" horiz-adv-x="384" 
d="M370 350l-84 84q-14 14 -34 14h-204q-20 0 -34 -14t-14 -34v-416q0 -20 14 -34t34 -14h288q20 0 34 14t14 34v332q0 20 -14 34zM332 320h-76v76zM48 -16v416h160v-104q0 -10 7 -17t17 -7h104v-288h-288zM192 60q0 -8 -7.5 -11t-12.5 3l-36 36h-28q-5 0 -8.5 3.5t-3.5 8.5
v56q0 4 3.5 8t8.5 4h28l36 36q5 6 12.5 3t7.5 -11v-136zM233 107q7 7 7 17t-7 17q-10 10 -5.5 23.5t16.5 16.5t24 -7q20 -21 20 -50t-20 -50q-7 -7 -14.5 -8t-14 3t-10.5 10t-3 14t7 14z" />
    <glyph glyph-name="file-video" unicode="&#xf1c8;" horiz-adv-x="384" 
d="M370 350l-84 84q-14 14 -34 14h-204q-20 0 -34 -14t-14 -34v-416q0 -20 14 -34t34 -14h288q20 0 34 14t14 34v332q0 20 -14 34zM332 320h-76v76zM48 -16v416h160v-104q0 -10 7 -17t17 -7h104v-288h-288zM277 195l-53 -52v37q0 8 -6 14t-14 6h-104q-8 0 -14 -6t-6 -14
v-104q0 -8 6 -14t14 -6h104q8 0 14 6t6 14v37l53 -52q3 -4 8 -5t9 1t7 6t3 9v112q0 7 -5 11.5t-11 4.5t-11 -5z" />
    <glyph glyph-name="file-code" unicode="&#xf1c9;" horiz-adv-x="384" 
d="M370 350l-84 84q-14 14 -34 14h-204q-20 0 -34 -14t-14 -34v-416q0 -20 14 -34t34 -14h288q20 0 34 14t14 34v332q0 20 -14 34zM332 320h-76v76zM48 -16v416h160v-104q0 -10 7 -17t17 -7h104v-288h-288zM150 99l-33 29l33 29l3 6q0 2 -1 3.5t-2 3.5l-17 18q-6 6 -13 0
l-57 -54q-2 -1 -2.5 -3.5t0 -5t2.5 -3.5l57 -54q3 -3 6 -3v0q4 0 7 3l17 18q1 2 2 3.5t1 3.5q0 3 -3 6zM234 227l-24 7h-3q-7 0 -8 -6l-55 -188q-2 -9 6 -11l24 -7q3 -1 5 -0.5t4 2.5t2 4l55 188q1 8 -6 11zM321 134l-57 54q-3 3 -6.5 3t-6.5 -3l-17 -18q-3 -3 -3 -7
q1 -3 3 -6l33 -29l-33 -29q-3 -3 -3 -6q0 -2 1 -3.5t2 -3.5l17 -18q1 -1 3 -2t4 -1l6 3l57 54q7 6 0 12z" />
    <glyph glyph-name="life-ring" unicode="&#xf1cd;" 
d="M256 -56q103 0 175.5 72.5t72.5 175.5t-72.5 175.5t-175.5 72.5t-175.5 -72.5t-72.5 -175.5t72.5 -175.5t175.5 -72.5zM153 21l53 53q50 -21 100 0l53 -53q-47 -29 -103 -29t-103 29zM336 192q0 -33 -23.5 -56.5t-56.5 -23.5t-56.5 23.5t-23.5 56.5t23.5 56.5t56.5 23.5
t56.5 -23.5t23.5 -56.5zM427 89l-53 53q21 50 0 100l53 53q29 -47 29 -103t-29 -103zM359 363l-53 -53q-50 21 -100 0l-53 53q47 29 103 29t103 -29zM85 295l53 -53q-21 -50 0 -100l-53 -53q-29 47 -29 103t29 103z" />
    <glyph glyph-name="paper-plane" unicode="&#xf1d8;" 
d="M440 442l-416 -240q-26 -15 -24 -45t30 -41l114 -48v-84q0 -13 6.5 -24t16.5 -16.5t21.5 -7t23 3.5t19.5 15l43 59l112 -46q5 -1 9.5 -2t9.5 -1q12 0 23 6q20 11 24 34l59 388q5 30 -20 46.5t-51 2.5zM192 -16v65l37 -15zM405 13l-154 63l140 202q5 8 1.5 15.5t-10.5 9.5
t-15 -3l-211 -185l-108 45l416 240z" />
    <glyph glyph-name="futbol" unicode="&#xf1e3;" horiz-adv-x="496" 
d="M484 269q-25 77 -91 124t-145 47q-13 0 -25.5 -1.5t-25.5 -4t-26 -6.5q-97 -32 -144 -123.5t-15 -189.5q25 -77 91 -124t145 -47q39 0 77 12q97 32 144 123.5t15 189.5zM409 75l-52 -7l-44 61l25 76l71 22l39 -37q0 -23 -5.5 -45.5t-16.5 -43.5q-5 -10 -17 -26zM409 310
l-10 -53l-71 -22l-64 47v74l47 26q61 -21 98 -72zM185 382l47 -26v-74l-64 -47l-71 22l-10 53q38 52 98 72zM139 68l-53 7q-15 21 -26.5 49.5t-11.5 65.5l39 37l71 -23l24 -74zM187 2l-22 48l43 61h79l44 -61l-22 -48q-64 -19 -122 0z" />
    <glyph glyph-name="newspaper" unicode="&#xf1ea;" horiz-adv-x="576" 
d="M552 384h-440q-8 0 -15 -2.5t-13 -6.5t-10.5 -10t-6.5 -13h-43q-10 0 -17 -7t-7 -17v-272q0 -23 16.5 -39.5t39.5 -16.5h496q10 0 17 7t7 17v336q0 10 -7 17t-17 7zM48 56v248h16v-248q0 -8 -8 -8t-8 8zM528 48h-417q1 4 1 8v280h416v-288zM172 168h136q12 0 12 12v96
q0 12 -12 12h-136q-12 0 -12 -12v-96q0 -12 12 -12zM200 248h80v-40h-80v40zM160 108v24q0 12 12 12h136q12 0 12 -12v-24q0 -12 -12 -12h-136q-12 0 -12 12zM352 108v24q0 12 12 12h104q12 0 12 -12v-24q0 -12 -12 -12h-104q-12 0 -12 12zM352 252v24q0 12 12 12h104
q12 0 12 -12v-24q0 -12 -12 -12h-104q-12 0 -12 12zM352 180v24q0 12 12 12h104q12 0 12 -12v-24q0 -12 -12 -12h-104q-12 0 -12 12z" />
    <glyph glyph-name="bell-slash" unicode="&#xf1f6;" horiz-adv-x="640" 
d="M634 -23l-598 467q-12 10 -22 -2l-10 -12q-11 -13 2 -23l598 -467q12 -10 22 2l10 12q10 13 -2 23zM164 80q14 19 25 46t16 65l-46 35q-3 -85 -48 -134l-3 -3q-3 -2 -3 -3q-9 -10 -9 -22q0 -6 2.5 -12t6.5 -10.5t10 -7t13 -2.5h280l-62 48h-182zM320 352q46 0 79 -33
t33 -79v-1q0 -12 0.5 -23t2.5 -22l59 -47q-14 38 -14 93q0 38 -16.5 71t-45.5 55t-66 29v21q0 13 -9.5 22.5t-22.5 9.5t-22.5 -9.5t-9.5 -22.5v-21q-38 -8 -69 -33l38 -29q29 19 63 19zM320 -64q26 0 45 18.5t19 45.5h-128q0 -17 8.5 -32t23.5 -23.5t32 -8.5z" />
    <glyph glyph-name="copyright" unicode="&#xf1f9;" 
d="M256 440q-103 0 -175.5 -72.5t-72.5 -175.5t72.5 -175.5t175.5 -72.5t175.5 72.5t72.5 175.5t-72.5 175.5t-175.5 72.5zM256 -8q-83 0 -141.5 58.5t-58.5 141.5t58.5 141.5t141.5 58.5t141.5 -58.5t58.5 -141.5t-58.5 -141.5t-141.5 -58.5zM363 93q-7 -8 -17.5 -15.5
t-35 -16.5t-51.5 -9q-40 0 -72.5 18.5t-50 50.5t-17.5 72q0 60 40 100t100 40q59 0 97 -35q4 -4 4 -9q0 -3 -2 -6l-18 -29q-2 -2 -5 -3.5t-6.5 -1.5t-6.5 3q-28 22 -61 22q-24 0 -42 -10.5t-27 -29t-9 -40.5q0 -34 21 -59t57 -25t66 27q4 4 9 3.5t9 -4.5l20 -27q2 -4 2 -8
q0 -2 -1 -4t-3 -4z" />
    <glyph glyph-name="closed-captioning" unicode="&#xf20a;" 
d="M464 384h-416q-20 0 -34 -14t-14 -34v-288q0 -20 14 -34t34 -14h416q20 0 34 14t14 34v288q0 20 -14 34t-34 14zM458 48h-404q-6 0 -6 6v276q0 6 6 6h404q6 0 6 -6v-276q0 -6 -6 -6zM247 134q3 -4 -1 -8q-26 -28 -67 -30.5t-73 24.5t-32 74q0 46 32.5 72t73.5 24.5
t66 -26.5q2 -2 2 -3t-1 -3l-17 -30q-4 -6 -10 -2q-30 24 -62 13.5t-32 -44.5q0 -37 30.5 -48.5t61.5 15.5q5 5 9 -1zM437 134q3 -4 0 -8q-20 -21 -50 -27t-57 2t-46.5 32.5t-19.5 60.5q0 46 32.5 72t73.5 24.5t66 -26.5q2 -2 2.5 -3t-0.5 -3l-18 -30q-4 -6 -9 -2
q-31 24 -63 13.5t-32 -44.5q0 -24 14.5 -38.5t36.5 -13.5t41 19q2 2 3.5 2t3.5 -0.5t3 -2.5z" />
    <glyph glyph-name="object-group" unicode="&#xf247;" 
d="M500 320q12 0 12 12v72q0 12 -12 12h-72q-12 0 -12 -12v-12h-320v12q0 12 -12 12h-72q-12 0 -12 -12v-72q0 -12 12 -12h12v-256h-12q-12 0 -12 -12v-72q0 -12 12 -12h72q12 0 12 12v12h320v-12q0 -12 12 -12h72q12 0 12 12v72q0 12 -12 12h-12v256h12zM448 384h32v-32
h-32v32zM32 384h32v-32h-32v32zM64 0h-32v32h32v-32zM480 0h-32v32h32v-32zM440 64h-12q-12 0 -12 -12v-12h-320v12q0 12 -12 12h-12v256h12q12 0 12 12v12h320v-12q0 -12 12 -12h12v-256zM404 256h-84v52q0 12 -12 12h-200q-12 0 -12 -12v-168q0 -12 12 -12h84v-52
q0 -12 12 -12h200q12 0 12 12v168q0 12 -12 12zM136 280h144v-112h-144v112zM376 104h-144v24h76q12 0 12 12v76h56v-112z" />
    <glyph glyph-name="object-ungroup" unicode="&#xf248;" horiz-adv-x="576" 
d="M564 224q12 0 12 12v72q0 12 -12 12h-72q-12 0 -12 -12v-12h-88v24h12q12 0 12 12v72q0 12 -12 12h-72q-12 0 -12 -12v-12h-224v12q0 12 -12 12h-72q-12 0 -12 -12v-72q0 -12 12 -12h12v-160h-12q-12 0 -12 -12v-72q0 -12 12 -12h72q12 0 12 12v12h88v-24h-12
q-12 0 -12 -12v-72q0 -12 12 -12h72q12 0 12 12v12h224v-12q0 -12 12 -12h72q12 0 12 12v72q0 12 -12 12h-12v160h12zM352 384h32v-32h-32v32zM352 128h32v-32h-32v32zM64 96h-32v32h32v-32zM64 352h-32v32h32v-32zM96 136v12q0 12 -12 12h-12v160h12q12 0 12 12v12h224v-12
q0 -12 12 -12h12v-160h-12q-12 0 -12 -12v-12h-224zM224 0h-32v32h32v-32zM504 64h-12q-12 0 -12 -12v-12h-224v12q0 12 -12 12h-12v24h88v-12q0 -12 12 -12h72q12 0 12 12v72q0 12 -12 12h-12v88h88v-12q0 -12 12 -12h12v-160zM544 0h-32v32h32v-32zM544 256h-32v32h32v-32
z" />
    <glyph glyph-name="sticky-note" unicode="&#xf249;" horiz-adv-x="448" 
d="M448 100v268q0 20 -14 34t-34 14h-352q-20 0 -34 -14t-14 -34v-352q0 -20 14 -34t34 -14h268q20 0 34 14l84 84q6 6 10 16t4 18zM320 20v76h76zM400 368v-224h-104q-10 0 -17 -7t-7 -17v-104h-224v352h352z" />
    <glyph glyph-name="clone" unicode="&#xf24d;" 
d="M464 448h-320q-20 0 -34 -14t-14 -34v-48h-48q-20 0 -34 -14t-14 -34v-320q0 -20 14 -34t34 -14h320q20 0 34 14t14 34v48h48q20 0 34 14t14 34v320q0 20 -14 34t-34 14zM362 -16h-308q-6 0 -6 6v308q0 6 6 6h42v-224q0 -20 14 -34t34 -14h224v-42q0 -6 -6 -6zM458 80
h-308q-6 0 -6 6v308q0 6 6 6h308q6 0 6 -6v-308q0 -6 -6 -6z" />
    <glyph glyph-name="hourglass" unicode="&#xf254;" horiz-adv-x="384" 
d="M368 400h4q12 0 12 12v24q0 12 -12 12h-360q-12 0 -12 -12v-24q0 -12 12 -12h4q0 -63 25 -120.5t72 -87.5q-47 -30 -72 -87.5t-25 -120.5h-4q-12 0 -12 -12v-24q0 -12 12 -12h360q12 0 12 12v24q0 12 -12 12h-4q0 31 -6 61t-18 57.5t-30.5 51t-42.5 38.5q47 30 72 87.5
t25 120.5zM64 400h256q0 -76 -37.5 -130t-90.5 -54t-90.5 54t-37.5 130zM320 -16h-256q0 76 37.5 130t90.5 54t90.5 -54t37.5 -130z" />
    <glyph glyph-name="hand-rock" unicode="&#xf255;" 
d="M409 369q-11 16 -28 25t-36 8.5t-35 -9.5q-22 23 -54 23t-54 -23q-8 4 -16.5 6.5t-16.5 3t-16.5 -1t-16 -5t-14 -8t-12 -10.5t-10 -13t-7 -15.5t-2.5 -17.5q-35 8 -63 -14t-28 -57v-57q0 -52 39 -86l98 -85l1.5 -1.5t0.5 -1t0.5 -1.5t0.5 -2.5v-3v-4v-5v-6.5v-8
q0 -13 9.5 -22.5t22.5 -9.5h252q13 0 22.5 9.5t9.5 22.5q0 33 4 42l43 100q9 21 9 45v114q0 40 -33.5 62t-69.5 6zM464 187q0 -6 -1.5 -13.5t-3.5 -12.5l-43 -100q-8 -18 -8 -38v-7h-220v10q0 5 -1 10t-2.5 9.5t-4 8.5t-5.5 8t-7 7l-97 85q-11 10 -17 22.5t-6 27.5v57
q0 15 13 21.5t26 0t13 -22.5v-41q0 -2 0.5 -3.5t1 -3.5t1.5 -3l2 -2l7 -6q2 -2 5.5 -3t5.5 -1q7 0 11.5 4.5t4.5 11.5v116q0 16 13 22.5t26 0t13 -23.5v-26q0 -5 2 -8.5t6 -5.5t8 -2h7q7 0 11.5 4.5t4.5 11.5v41q0 16 13 22.5t26 -0.5t13 -23v-40q0 -7 4.5 -11.5t11.5 -4.5
h7q3 0 6 1t5 3.5t3.5 5t1.5 6.5v27q0 16 13 22.5t26 0t13 -23.5v-26q0 -7 4.5 -11.5t11.5 -4.5h7q7 0 11.5 4.5t4.5 11.5q0 15 13 21.5t26 0t13 -22.5v-114z" />
    <glyph glyph-name="hand-paper" unicode="&#xf256;" horiz-adv-x="448" 
d="M373 335v11q0 22 -12 39t-31.5 24.5t-39.5 2.5q-20 37 -60 36t-58 -37q-32 8 -57.5 -12t-25.5 -53v-126q-33 12 -62 -9q-22 -16 -26 -43.5t12 -49.5l119 -169q10 -13 27 -13h222q12 0 20.5 7t11.5 18l30 131q2 9 3.5 22.5t1.5 22.5v132q0 30 -23 50.5t-52 15.5zM400 137
v-6.5t-0.5 -7l-1 -7l-1 -7t-1.5 -6.5l-27 -119h-202l-115 162q-7 9 -2.5 19t14 11t17.5 -8l27 -38q4 -6 11 -6.5t12.5 4t5.5 12.5v206q0 12 9 17t18.5 -0.5t9.5 -17.5v-153q0 -4 2 -8t5.5 -6t8.5 -2h7q6 0 11 4.5t5 11.5v189q0 17 15 19q17 2 20 -14q1 -3 1 -6v-188
q0 -3 1.5 -6t3.5 -5t5 -3.5t6 -1.5h7q7 0 11.5 4.5t4.5 11.5v155q0 5 2 9t5 6t7 3t8 0t7.5 -3t5.5 -6.5t2 -9.5v-154q0 -7 4.5 -11.5t11.5 -4.5h6q7 0 11.5 4.5t4.5 11.5v76q0 8 4 13t9.5 6t10.5 0t9 -6t4 -12v-132z" />
    <glyph glyph-name="hand-scissors" unicode="&#xf257;" 
d="M256 -32h70q8 0 15 2l119 27q23 5 37.5 23.5t14.5 41.5v205q0 39 -34 58l-98 55q-27 13 -50 6t-42 -31l-145 56q-29 11 -57 -1t-39 -40t1 -56t41 -39l79 -19l-94 9q-20 0 -37 -9.5t-27 -26.5t-10 -37q0 -30 21.5 -51.5t52.5 -21.5h88q-3 -20 5.5 -37.5t24.5 -27.5
q-10 -32 10 -59t54 -27zM256 16q-12 0 -17 9t0 18.5t17 9.5q3 0 5 0.5t4 2t3.5 3.5t2.5 4.5t1 5.5v6q0 7 -4.5 11.5t-11.5 4.5h-28q-12 0 -17 9.5t0 18.5t17 9h28q3 0 6 1.5t5 3.5t3.5 5t1.5 6v7q0 6 -4.5 11t-11.5 5h-182q-16 0 -23 12.5t0 25t23 12.5h182q3 0 6 1.5t5 3.5
t3.5 5t1.5 6v12q0 11 -10 15l-156 59q-15 6 -16.5 20t9.5 23.5t27 3.5l166 -64l6 -1q7 0 12 6l22 27q3 3 7 5t9 1.5t9 -2.5l98 -55q2 -1 4.5 -3.5t3.5 -5.5t1 -7v-205q0 -15 -15 -18l-119 -27q0 -1 -1.5 -1h-2.5h-70z" />
    <glyph glyph-name="hand-lizard" unicode="&#xf258;" horiz-adv-x="576" 
d="M557 157l-147 226q-5 8 -11.5 14t-14 10.5t-16.5 6.5t-18 2h-294q-23 0 -39.5 -16.5t-16.5 -39.5v-8q0 -33 23.5 -56.5t56.5 -23.5h196l-18 -48h-114q-36 0 -62 -26t-26 -62q0 -23 16.5 -39.5t39.5 -16.5h132q4 0 8 -2l100 -38v-72h224v124q0 36 -19 65zM528 16h-128v24
q0 15 -8.5 27t-22.5 17l-99 39q-13 5 -26 5h-132q-8 0 -8 8q0 17 11.5 28.5t28.5 11.5h114q15 0 27 8.5t18 22.5l24 64q7 18 -4 33.5t-30 15.5h-213q-13 0 -22.5 9.5t-9.5 22.5v8q0 8 8 8h294q4 0 8 -1.5t7 -4t5 -5.5l146 -226q12 -18 12 -39v-76z" />
    <glyph glyph-name="hand-spock" unicode="&#xf259;" 
d="M21 66l129 -121q9 -9 22 -9h238q2 0 5 0.5t5 1t4.5 2t4.5 3t3.5 3.5l3 4l3 4t1.5 5l32 107q5 16 5 33v37q0 6 1 12l32 133q8 32 -12.5 57.5t-52.5 25.5q-4 19 -17 34t-33 20q-27 7 -51 -7.5t-30 -41.5l-17 -105l-22 132q-6 27 -29.5 41.5t-50.5 8.5q-15 -3 -26.5 -12
t-18 -22t-7.5 -27q-32 -1 -51.5 -26t-12.5 -56l31 -136q-21 17 -47.5 15t-44.5 -21q-19 -20 -18 -48t21 -47zM53.5 128q5.5 6 13 6t13.5 -5l53 -50q8 -7 17.5 -3t9.5 15v69v4l-35 150q-2 11 6 18t18.5 4.5t13.5 -14.5l30 -134q3 -12 16 -12h8q8 0 12.5 6t3.5 14l-42 181
q-3 11 5.5 18t18.5 4.5t13 -14.5l45 -197q1 -3 3.5 -6t5.5 -4.5t7 -1.5h13q5 0 9.5 3.5t6.5 8.5l42 170q3 11 13.5 13.5t18.5 -4.5t5 -19l-38 -152q-2 -8 3 -14t12 -6h10q13 0 16 12l27 113q2 12 12.5 14.5t18.5 -4.5t5 -18l-31 -134q-1 -5 -2 -11.5t-1 -11.5v-37
q0 -5 -0.5 -9.5t-2.5 -9.5l-28 -96h-220l-124 117q-6 6 -6 13.5t5.5 13.5z" />
    <glyph glyph-name="hand-pointer" unicode="&#xf25a;" horiz-adv-x="448" 
d="M358 269q-14 18 -36.5 23.5t-43.5 -4.5q-7 7 -16.5 12t-19.5 7t-20 0v74q0 14 -5.5 26t-14.5 21t-21 14.5t-26 5.5q-27 0 -46.5 -19.5t-19.5 -47.5v-161q-33 12 -62 -9q-22 -16 -26 -43.5t12 -49.5l109 -154q20 -28 54 -28h178q23 0 41.5 14.5t23.5 37.5l27 119q2 7 2 15
v84q0 23 -13.5 41t-33.5 23.5t-43 -1.5zM81 168l27 -38q7 -9 18 -5.5t11 15.5v241q0 12 9 17t18.5 0t9.5 -17v-175q0 -7 4.5 -11.5t11.5 -4.5h7q4 0 7.5 2t6 6t2.5 8v35q0 12 9 17t18 0t9 -17v-35q0 -7 5 -11.5t11 -4.5h7q7 0 11.5 4.5t4.5 11.5v21q0 12 9 17t18.5 0
t9.5 -17v-21q0 -7 4.5 -11.5t11.5 -4.5h6q4 0 7 1.5t5 3.5t3 5t1 6q0 9 6 14t13 5t12.5 -5t5.5 -14v-84q0 -2 -1 -4l-27 -119q-3 -15 -18 -15h-178q-9 0 -15 8l-109 154q-7 9 -2.5 19t14 11t17.5 -8zM176 48v96q0 7 4 11.5t10 4.5h6q4 0 7 -2t5 -6t2 -8v-96q0 -7 -4 -11.5
t-10 -4.5h-6q-6 0 -10 4.5t-4 11.5zM252 48v96q0 7 4 11.5t10 4.5h6q5 0 9.5 -4.5t4.5 -11.5v-96q0 -4 -2 -8t-5.5 -6t-6.5 -2h-6q-6 0 -10 4.5t-4 11.5zM327 48v96q0 16 14 16h6q14 0 14 -16v-96q0 -16 -14 -16h-6q-14 0 -14 16z" />
    <glyph glyph-name="hand-peace" unicode="&#xf25b;" horiz-adv-x="448" 
d="M362 256q-10 16 -27.5 24.5t-37.5 5.5v88q0 31 -21.5 52.5t-51.5 21.5t-51.5 -21.5t-21.5 -52.5l9 -94l-19 79q-11 29 -39 41t-56 1t-40 -39t-1 -57l56 -145q-53 -43 -25 -92l55 -98q19 -34 58 -34h205q23 0 41.5 14.5t23.5 37.5l27 119q1 3 1.5 7.5t0.5 7.5v70
q0 34 -27 54t-59 10zM400 122v-2t-1 -2l-27 -119q-3 -15 -18 -15h-205q-11 0 -16 9l-55 98q-8 15 4 25l27 22q5 5 6 12q0 3 -1 6l-64 166q-9 23 11 33q21 11 33 -8q1 -3 3 -5l59 -156q2 -4 6.5 -7t8.5 -3h12q6 0 11 4.5t5 11.5v182q0 16 12.5 23t25 0t12.5 -23v-182
q0 -7 5 -11.5t11 -4.5h7q3 0 6 1.5t5 3.5t3.5 5t1.5 6v28q0 12 9 17t18.5 0t9.5 -17v-28q0 -7 4.5 -11.5t11.5 -4.5h6q4 0 7 1.5t5 3.5t3 5t1 6q0 12 9.5 17t18.5 0t9 -17v-70z" />
    <glyph glyph-name="registered" unicode="&#xf25d;" 
d="M256 440q-103 0 -175.5 -72.5t-72.5 -175.5t72.5 -175.5t175.5 -72.5t175.5 72.5t72.5 175.5t-72.5 175.5t-175.5 72.5zM256 -8q-83 0 -141.5 58.5t-58.5 141.5t58.5 141.5t141.5 58.5t141.5 -58.5t58.5 -141.5t-58.5 -141.5t-141.5 -58.5zM366 74q-51 93 -53 96
q18 10 29 29.5t11 43.5q0 85 -102 85h-79q-4 0 -8 -3.5t-4 -8.5v-248q0 -5 4 -8.5t8 -3.5h39q5 0 8.5 3.5t3.5 8.5v84h32l48 -90q4 -5 10 -6h43q7 0 10.5 6t-0.5 12zM257 208h-34v64h27q12 0 20 -2t12 -6.5t5.5 -10t1.5 -12.5q0 -33 -32 -33z" />
    <glyph glyph-name="calendar-plus" unicode="&#xf271;" horiz-adv-x="448" 
d="M336 156v-24q0 -12 -12 -12h-76v-76q0 -12 -12 -12h-24q-12 0 -12 12v76h-76q-12 0 -12 12v24q0 12 12 12h76v76q0 12 12 12h24q12 0 12 -12v-76h76q12 0 12 -12zM448 336v-352q0 -20 -14 -34t-34 -14h-352q-20 0 -34 14t-14 34v352q0 20 14 34t34 14h48v52q0 12 12 12
h40q12 0 12 -12v-52h128v52q0 12 12 12h40q12 0 12 -12v-52h48q20 0 34 -14t14 -34zM400 -10v298h-352v-298q0 -6 6 -6h340q6 0 6 6z" />
    <glyph glyph-name="calendar-minus" unicode="&#xf272;" horiz-adv-x="448" 
d="M124 120q-12 0 -12 12v24q0 12 12 12h200q12 0 12 -12v-24q0 -12 -12 -12h-200zM448 336v-352q0 -20 -14 -34t-34 -14h-352q-20 0 -34 14t-14 34v352q0 20 14 34t34 14h48v52q0 12 12 12h40q12 0 12 -12v-52h128v52q0 12 12 12h40q12 0 12 -12v-52h48q20 0 34 -14t14 -34
zM400 -10v298h-352v-298q0 -6 6 -6h340q6 0 6 6z" />
    <glyph glyph-name="calendar-times" unicode="&#xf273;" horiz-adv-x="448" 
d="M312 73l-17 -17q-9 -8 -17 0l-54 54l-54 -54q-8 -8 -17 0l-17 17q-8 9 0 17l54 54l-54 54q-8 8 0 17l17 17q9 8 17 0l54 -54l54 54q8 8 17 0l17 -17q8 -9 0 -17l-54 -54l54 -54q8 -8 0 -17zM448 336v-352q0 -20 -14 -34t-34 -14h-352q-20 0 -34 14t-14 34v352q0 20 14 34
t34 14h48v52q0 12 12 12h40q12 0 12 -12v-52h128v52q0 12 12 12h40q12 0 12 -12v-52h48q20 0 34 -14t14 -34zM400 -10v298h-352v-298q0 -6 6 -6h340q6 0 6 6z" />
    <glyph glyph-name="calendar-check" unicode="&#xf274;" horiz-adv-x="448" 
d="M400 384h-48v52q0 12 -12 12h-40q-12 0 -12 -12v-52h-128v52q0 12 -12 12h-40q-12 0 -12 -12v-52h-48q-20 0 -34 -14t-14 -34v-352q0 -20 14 -34t34 -14h352q20 0 34 14t14 34v352q0 20 -14 34t-34 14zM394 -16h-340q-6 0 -6 6v298h352v-298q0 -6 -6 -6zM341 185
l-142 -142q-9 -8 -17 1l-75 75q-9 9 0 17l23 23q3 3 8 3t9 -3l44 -45l111 110q3 4 8 4t9 -4l22 -22q4 -4 4 -9t-4 -8z" />
    <glyph glyph-name="map" unicode="&#xf279;" horiz-adv-x="576" 
d="M560 416q-3 0 -6 -1l-170 -63l-172 61q-10 3 -20 3t-20 -3l-152 -53q-4 -2 -7.5 -5t-6.5 -7t-4.5 -8.5t-1.5 -9.5v-346q0 -7 5 -11.5t11 -4.5q3 0 6 1l170 63l172 -61q3 -1 6.5 -1.5l7 -1t6.5 -0.5q10 0 20 3l152 53q8 3 14 12t6 18v346q0 7 -5 11.5t-11 4.5zM224 358
l128 -46v-286l-128 46v286zM48 30v289l128 44v-286h-1zM528 65l-128 -44v286h1l127 47v-289z" />
    <glyph glyph-name="comment-alt" unicode="&#xf27a;" 
d="M448 448h-384q-26 0 -45 -19t-19 -45v-288q0 -26 19 -45t45 -19h96v-84q0 -12 12 -12l7 2l125 94h144q26 0 45 19t19 45v288q0 26 -19 45t-45 19zM464 96q0 -7 -4.5 -11.5t-11.5 -4.5h-160l-13 -10l-67 -50v60h-144q-7 0 -11.5 4.5t-4.5 11.5v288q0 7 4.5 11.5t11.5 4.5
h384q7 0 11.5 -4.5t4.5 -11.5v-288z" />
    <glyph glyph-name="pause-circle" unicode="&#xf28b;" 
d="M256 440q-103 0 -175.5 -72.5t-72.5 -175.5t72.5 -175.5t175.5 -72.5t175.5 72.5t72.5 175.5t-72.5 175.5t-175.5 72.5zM256 -8q-83 0 -141.5 58.5t-58.5 141.5t58.5 141.5t141.5 58.5t141.5 -58.5t58.5 -141.5t-58.5 -141.5t-141.5 -58.5zM352 272v-160q0 -7 -4.5 -11.5
t-11.5 -4.5h-48q-7 0 -11.5 4.5t-4.5 11.5v160q0 7 4.5 11.5t11.5 4.5h48q7 0 11.5 -4.5t4.5 -11.5zM240 272v-160q0 -7 -4.5 -11.5t-11.5 -4.5h-48q-7 0 -11.5 4.5t-4.5 11.5v160q0 7 4.5 11.5t11.5 4.5h48q7 0 11.5 -4.5t4.5 -11.5z" />
    <glyph glyph-name="stop-circle" unicode="&#xf28d;" 
d="M504 192q0 103 -72.5 175.5t-175.5 72.5t-175.5 -72.5t-72.5 -175.5t72.5 -175.5t175.5 -72.5t175.5 72.5t72.5 175.5zM56 192q0 83 58.5 141.5t141.5 58.5t141.5 -58.5t58.5 -141.5t-58.5 -141.5t-141.5 -58.5t-141.5 58.5t-58.5 141.5zM352 272v-160q0 -7 -4.5 -11.5
t-11.5 -4.5h-160q-7 0 -11.5 4.5t-4.5 11.5v160q0 7 4.5 11.5t11.5 4.5h160q7 0 11.5 -4.5t4.5 -11.5z" />
    <glyph glyph-name="handshake" unicode="&#xf2b5;" horiz-adv-x="640" 
d="M519 320l-47 48q-3 2 -6.5 4.5t-8 4.5t-9 3.5t-8.5 2.5t-8 1h-227q-5 0 -10.5 -1t-10.5 -3t-9.5 -5t-8.5 -7l-48 -48h-118v-256h64q13 0 22.5 9.5t9.5 22.5h9l85 -76q9 -8 19.5 -12.5t21.5 -6t22 -0.5t22 4.5t20 10.5q19 -16 41 -16q14 0 26.5 6t22.5 18q17 -7 34.5 -2.5
t29.5 19.5l26 32q8 10 11 23h58q0 -9 4.5 -16t11.5 -11.5t16 -4.5h64v256h-121zM48 96q-7 0 -11.5 5t-4.5 11.5t4.5 11t11.5 4.5t11.5 -4.5t4.5 -11t-4.5 -11.5t-11.5 -5zM438 103l-26 -32q-5 -6 -11 -1l-24 19l-30 -36q-9 -10 -18 -3l-37 32l-16 -19q-10 -13 -26.5 -15
t-28.5 8l-97 88h-28v128h42l62 62q1 0 2.5 1t2.5 1h57l-39 -35q-22 -21 -23 -50.5t19 -51.5q9 -9 23.5 -16.5t37 -6t40.5 18.5l9 7l108 -87q2 -2 2.5 -5.5t-1.5 -6.5zM544 144h-69l-8 8l-103 83l13 12q12 10 1 22l-11 12q-11 12 -23 1l-55 -51q-5 -4 -11 -5.5t-12.5 0
t-10.5 5.5q-7 8 -7 18t8 16l65 60q12 11 27 11h84l6 -2l61 -62h45v-128zM592 96q-7 0 -11.5 5t-4.5 11.5t4.5 11t11.5 4.5t11.5 -4.5t4.5 -11.5q0 -4 -2 -7.5t-6 -6t-8 -2.5z" />
    <glyph glyph-name="envelope-open" unicode="&#xf2b6;" 
d="M495 283q-4 4 -61.5 50t-74.5 59q-1 2 -14 12.5t-20 15.5t-19.5 13t-25 11.5t-24.5 3.5t-24.5 -3.5t-25 -11.5t-19.5 -13t-20 -15.5t-14 -12.5q-17 -13 -74.5 -59t-60.5 -49q-18 -15 -18 -37v-263q0 -20 14 -34t34 -14h416q20 0 34 14t14 34v262q0 23 -17 37zM464 -10
q0 -6 -6 -6h-404q-6 0 -6 6v254q0 3 2 4q86 69 133 107q1 0 14.5 12t20.5 16.5t18.5 10.5t19.5 6q7 0 15 -3t16.5 -9t15 -11t15.5 -12.5t11 -9.5q4 -3 9.5 -7.5t12 -10t14.5 -12t16.5 -13t17 -13.5t16.5 -13.5t15.5 -12.5t13.5 -10.5t10.5 -8.5t7.5 -6l2 -4v-254zM432 178
q8 -10 -2 -17q-55 -45 -71 -57q-1 -2 -14 -12.5t-20 -15.5t-19.5 -13t-25 -11.5t-24.5 -3.5t-24.5 3.5t-25 11.5t-19.5 13t-20 15.5t-14 12.5q-16 12 -71 57q-10 7 -2 17l15 18q8 9 17 2q54 -44 71 -57q1 0 14.5 -11.5t20.5 -16.5t18.5 -11t19.5 -6q6 0 12.5 2.5t12.5 6
t13.5 9t13 9.5t12 10t9.5 8q16 13 71 57q9 7 17 -2z" />
    <glyph glyph-name="address-book" unicode="&#xf2b9;" horiz-adv-x="448" 
d="M436 288q12 0 12 12v40q0 12 -12 12h-20v48q0 20 -14 34t-34 14h-320q-20 0 -34 -14t-14 -34v-416q0 -20 14 -34t34 -14h320q20 0 34 14t14 34v48h20q12 0 12 12v40q0 12 -12 12h-20v64h20q12 0 12 12v40q0 12 -12 12h-20v64h20zM368 -16h-320v416h320v-416zM208 192
q26 0 45 19t19 45t-19 45t-45 19t-45 -19t-19 -45t19 -45t45 -19zM118 64h180q9 0 15.5 5.5t6.5 13.5v19q0 12 -5.5 22.5t-14.5 18.5t-21.5 12.5t-25.5 4.5q-4 0 -17 -4t-28 -4t-28 4t-17 4q-28 0 -47.5 -17t-19.5 -41v-19q0 -8 6.5 -13.5t15.5 -5.5z" />
    <glyph glyph-name="address-card" unicode="&#xf2bb;" horiz-adv-x="576" 
d="M528 416h-480q-20 0 -34 -14t-14 -34v-352q0 -20 14 -34t34 -14h480q20 0 34 14t14 34v352q0 20 -14 34t-34 14zM528 16h-480v352h480v-352zM208 192q26 0 45 19t19 45t-19 45t-45 19t-45 -19t-19 -45t19 -45t45 -19zM118 64h180q9 0 15.5 5.5t6.5 13.5v19
q0 12 -5.5 22.5t-14.5 18.5t-21.5 12.5t-25.5 4.5q-4 0 -17 -4t-28 -4t-28 4t-17 4q-28 0 -47.5 -17t-19.5 -41v-19q0 -8 6.5 -13.5t15.5 -5.5zM360 128h112q8 0 8 8v16q0 8 -8 8h-112q-8 0 -8 -8v-16q0 -8 8 -8zM360 192h112q8 0 8 8v16q0 8 -8 8h-112q-8 0 -8 -8v-16
q0 -8 8 -8zM360 256h112q8 0 8 8v16q0 8 -8 8h-112q-8 0 -8 -8v-16q0 -8 8 -8z" />
    <glyph glyph-name="user-circle" unicode="&#xf2bd;" horiz-adv-x="496" 
d="M248 344q-40 0 -68 -28t-28 -68t28 -68t68 -28t68 28t28 68t-28 68t-68 28zM248 200q-20 0 -34 14t-14 34t14 34t34 14t34 -14t14 -34t-14 -34t-34 -14zM248 440q-103 0 -175.5 -72.5t-72.5 -175.5t72.5 -175.5t175.5 -72.5t175.5 72.5t72.5 175.5t-72.5 175.5
t-175.5 72.5zM248 -8q-74 0 -130 48q25 39 70 40q15 -5 30 -7.5t30 -2.5q30 0 60 10q46 -2 70 -40q-27 -23 -60 -35.5t-70 -12.5zM411 76q-19 24 -46.5 38t-58.5 14q-3 0 -21.5 -5t-36.5 -5t-36.5 5t-21.5 5q-64 0 -105 -52q-37 52 -37 116q0 83 58.5 141.5t141.5 58.5
t141.5 -58.5t58.5 -141.5q0 -64 -37 -116z" />
    <glyph glyph-name="id-badge" unicode="&#xf2c1;" horiz-adv-x="384" 
d="M336 448h-288q-20 0 -34 -14t-14 -34v-416q0 -20 14 -34t34 -14h288q20 0 34 14t14 34v416q0 20 -14 34t-34 14zM336 -16h-288v416h288v-416zM144 336h96q7 0 11.5 4.5t4.5 11.5t-4.5 11.5t-11.5 4.5h-96q-7 0 -11.5 -4.5t-4.5 -11.5t4.5 -11.5t11.5 -4.5zM192 160
q26 0 45 19t19 45t-19 45t-45 19t-45 -19t-19 -45t19 -45t45 -19zM102 32h180q6 0 11 2.5t8 7t3 9.5v19q0 16 -9 29.5t-24.5 21t-33.5 7.5q-4 0 -17 -4t-28 -4t-28 4t-17 4q-28 0 -47.5 -17t-19.5 -41v-19q0 -8 6.5 -13.5t15.5 -5.5z" />
    <glyph glyph-name="id-card" unicode="&#xf2c2;" horiz-adv-x="576" 
d="M528 416h-480q-20 0 -34 -14t-14 -34v-352q0 -20 14 -34t34 -14h480q20 0 34 14t14 34v352q0 20 -14 34t-34 14zM528 16h-225q1 4 1 22q0 16 -9 29.5t-24.5 21t-33.5 7.5q-4 0 -17 -4t-28 -4t-28 4t-17 4q-28 0 -47.5 -17t-19.5 -41v-10q0 -10 0.5 -10.5t0.5 -1.5h-33
v288h480v-288zM360 96h112q8 0 8 8v16q0 8 -8 8h-112q-8 0 -8 -8v-16q0 -8 8 -8zM360 160h112q8 0 8 8v16q0 8 -8 8h-112q-8 0 -8 -8v-16q0 -8 8 -8zM360 224h112q8 0 8 8v16q0 8 -8 8h-112q-8 0 -8 -8v-16q0 -8 8 -8zM192 128q26 0 45 19t19 45t-19 45t-45 19t-45 -19
t-19 -45t19 -45t45 -19z" />
    <glyph glyph-name="window-maximize" unicode="&#xf2d0;" 
d="M464 416h-416q-20 0 -34 -14t-14 -34v-352q0 -20 14 -34t34 -14h416q20 0 34 14t14 34v352q0 20 -14 34t-34 14zM464 22q0 -6 -6 -6h-404q-6 0 -6 6v234h416v-234z" />
    <glyph glyph-name="window-minimize" unicode="&#xf2d1;" 
d="M480 -32h-448q-13 0 -22.5 9.5t-9.5 22.5t9.5 22.5t22.5 9.5h448q13 0 22.5 -9.5t9.5 -22.5t-9.5 -22.5t-22.5 -9.5z" />
    <glyph glyph-name="window-restore" unicode="&#xf2d2;" 
d="M464 448h-320q-20 0 -34 -14t-14 -34v-48h-48q-20 0 -34 -14t-14 -34v-320q0 -20 14 -34t34 -14h320q20 0 34 14t14 34v48h48q20 0 34 14t14 34v320q0 20 -14 34t-34 14zM368 -16h-320v208h320v-208zM464 80h-48v224q0 20 -14 34t-34 14h-224v48h320v-320z" />
    <glyph glyph-name="snowflake" unicode="&#xf2dc;" horiz-adv-x="448" 
d="M438 92l-66 39l59 10q4 1 7.5 3.5t6.5 6.5q4 7 2 15q-1 8 -8 12.5t-16 2.5l-85 -31l-82 42l82 42l85 -31q9 -2 16 2.5t8 12.5q1 6 -0.5 11t-6 9t-9.5 5l-59 10l66 39q7 4 9 12.5t-2 15.5t-12 9.5t-16 -1.5l-66 -38l21 56q1 6 0 11t-5 9.5t-9 6.5q-5 1 -10 0t-9 -4.5
t-6 -8.5l-16 -90l-72 -42v84l69 59q6 6 5.5 14t-6.5 14q-4 4 -9.5 5t-11 -1t-9.5 -6l-38 -46v77q0 8 -6 14t-15 6q-6 0 -10.5 -2.5t-7.5 -7.5t-3 -10v-77l-38 46q-6 7 -14.5 7t-15 -5.5t-7 -13.5t5.5 -14l69 -59v-84l-72 42l-16 90q-3 8 -10 11.5t-15 1.5q-4 -2 -7 -4.5
t-5 -6t-2.5 -8t0.5 -8.5l21 -56l-66 38q-8 4 -16 1.5t-12 -9.5t-2 -15.5t9 -12.5l66 -39l-59 -10q-8 -2 -13 -9t-3.5 -15.5t8.5 -13t16 -2.5l85 31l82 -42l-82 -42l-85 31q-9 2 -16 -2.5t-8 -12.5q-1 -6 0.5 -11t6 -9t9.5 -5l59 -10l-66 -39q-7 -4 -9 -12.5t2 -15.5t12 -9.5
t16 1.5l66 38l-21 -56q-2 -9 2 -17q2 -3 5 -5.5t7 -4.5q3 -1 6 -1t6 1t5.5 3t4.5 4.5t3 5.5l16 90l72 42v-84l-69 -59q-6 -6 -5.5 -14t7 -13.5t15 -5.5t14.5 7l38 46v-77q0 -8 6 -14t15 -6q6 0 10.5 2.5t7.5 7.5t3 10v77l38 -46q2 -3 5 -4.5t5.5 -2t5.5 -0.5q2 0 4.5 0.5
t5 1.5t4.5 3q6 6 6.5 14t-5.5 14l-69 59v84l72 -42l16 -90q2 -5 6 -8.5t9 -4.5t10 0q8 3 12 11t2 16l-21 56l66 -38q4 -2 8 -2.5t7.5 0.5t7 3.5t5.5 6.5q4 7 2 15.5t-9 12.5z" />
    <glyph glyph-name="trash-alt" unicode="&#xf2ed;" horiz-adv-x="448" 
d="M192 260v-216q0 -12 -12 -12h-24q-12 0 -12 12v216q0 12 12 12h24q12 0 12 -12zM292 272h-24q-12 0 -12 -12v-216q0 -12 12 -12h24q12 0 12 12v216q0 12 -12 12zM424 368q10 0 17 -7t7 -17v-12q0 -12 -12 -12h-20v-336q0 -20 -14 -34t-34 -14h-288q-20 0 -34 14t-14 34
v336h-20q-12 0 -12 12v12q0 10 7 17t17 7h74l34 57q6 9 18 16t24 7h100q12 0 24 -7t18 -16l34 -57h74zM154 368h140l-18 29q-2 3 -5 3h-94q-1 0 -2.5 -1t-2.5 -2zM368 320h-288v-330q0 -6 6 -6h276q6 0 6 6v330z" />
    <glyph glyph-name="images" unicode="&#xf302;" horiz-adv-x="576" 
d="M480 32v-16q0 -20 -14 -34t-34 -14h-384q-20 0 -34 14t-14 34v256q0 20 14 34t34 14h16v-48h-10q-6 0 -6 -6v-244q0 -6 6 -6h372q6 0 6 6v10h48zM522 368h-372q-6 0 -6 -6v-244q0 -6 6 -6h372q6 0 6 6v244q0 6 -6 6zM528 416q20 0 34 -14t14 -34v-256q0 -20 -14 -34
t-34 -14h-384q-20 0 -34 14t-14 34v256q0 20 14 34t34 14h384zM264 304q0 -17 -11.5 -28.5t-28.5 -11.5t-28.5 11.5t-11.5 28.5t11.5 28.5t28.5 11.5t28.5 -11.5t11.5 -28.5zM192 208l40 40q8 8 16 0l40 -40l104 104q8 8 16 0l72 -72v-80h-288v48z" />
    <glyph glyph-name="clipboard" unicode="&#xf328;" horiz-adv-x="384" 
d="M336 384h-80q0 26 -19 45t-45 19t-45 -19t-19 -45h-80q-20 0 -34 -14t-14 -34v-352q0 -20 14 -34t34 -14h288q20 0 34 14t14 34v352q0 20 -14 34t-34 14zM330 -16h-276q-6 0 -6 6v340q0 6 6 6h42v-36q0 -12 12 -12h168q12 0 12 12v36h42q6 0 6 -6v-340q0 -6 -6 -6z
M192 408q10 0 17 -7t7 -17t-7 -17t-17 -7t-17 7t-7 17t7 17t17 7v0z" />
    <glyph glyph-name="arrow-alt-circle-down" unicode="&#xf358;" 
d="M256 440q-103 0 -175.5 -72.5t-72.5 -175.5t72.5 -175.5t175.5 -72.5t175.5 72.5t72.5 175.5t-72.5 175.5t-175.5 72.5zM256 -8q-83 0 -141.5 58.5t-58.5 141.5t58.5 141.5t141.5 58.5t141.5 -58.5t58.5 -141.5t-58.5 -141.5t-141.5 -58.5zM224 308v-116h-67
q-8 0 -11 -7.5t2 -12.5l100 -100q8 -8 16 0l100 100q3 4 3 8.5t-3.5 8t-8.5 3.5h-67v116q0 12 -12 12h-40q-12 0 -12 -12z" />
    <glyph glyph-name="arrow-alt-circle-left" unicode="&#xf359;" 
d="M8 192q0 -103 72.5 -175.5t175.5 -72.5t175.5 72.5t72.5 175.5t-72.5 175.5t-175.5 72.5t-175.5 -72.5t-72.5 -175.5zM456 192q0 -83 -58.5 -141.5t-141.5 -58.5t-141.5 58.5t-58.5 141.5t58.5 141.5t141.5 58.5t141.5 -58.5t58.5 -141.5zM384 212v-40q0 -12 -12 -12
h-116v-67q0 -8 -7.5 -11t-12.5 2l-100 100q-8 8 0 16l100 100q4 3 8.5 3t8 -3.5t3.5 -8.5v-67h116q12 0 12 -12z" />
    <glyph glyph-name="arrow-alt-circle-right" unicode="&#xf35a;" 
d="M504 192q0 103 -72.5 175.5t-175.5 72.5t-175.5 -72.5t-72.5 -175.5t72.5 -175.5t175.5 -72.5t175.5 72.5t72.5 175.5zM56 192q0 83 58.5 141.5t141.5 58.5t141.5 -58.5t58.5 -141.5t-58.5 -141.5t-141.5 -58.5t-141.5 58.5t-58.5 141.5zM128 172v40q0 12 12 12h116v67
q0 8 7.5 11t12.5 -2l100 -100q8 -8 0 -16l-100 -100q-5 -5 -12.5 -2t-7.5 11v67h-116q-12 0 -12 12z" />
    <glyph glyph-name="arrow-alt-circle-up" unicode="&#xf35b;" 
d="M256 -56q103 0 175.5 72.5t72.5 175.5t-72.5 175.5t-175.5 72.5t-175.5 -72.5t-72.5 -175.5t72.5 -175.5t175.5 -72.5zM256 392q83 0 141.5 -58.5t58.5 -141.5t-58.5 -141.5t-141.5 -58.5t-141.5 58.5t-58.5 141.5t58.5 141.5t141.5 58.5zM276 64h-40q-12 0 -12 12v116
h-67q-8 0 -11 7.5t2 12.5l100 100q8 8 16 0l100 -100q3 -4 3 -8.5t-3.5 -8t-8.5 -3.5h-67v-116q0 -12 -12 -12z" />
    <glyph glyph-name="gem" unicode="&#xf3a5;" horiz-adv-x="576" 
d="M464 448h-352q-7 0 -10 -5l-100 -148q-5 -7 1 -14l276 -341q1 -2 3.5 -3t5.5 -1t5.5 1t3.5 3l276 341q6 7 1 14l-100 148q-4 5 -10 5zM445 400l63 -96h-68l-52 96h57zM243 400h90l52 -96h-194zM131 400h57l-52 -96h-68zM88 256h52l68 -160zM191 256h194l-97 -243zM368 96
l68 160h52z" />
    <glyph glyph-name="money-bill-alt" unicode="&#xf3d1;" horiz-adv-x="640" 
d="M320 304q-40 0 -68 -33t-28 -79t28 -79t68 -33t68 33t28 79t-28 79t-68 33zM360 136q0 -8 -8 -8h-64q-8 0 -8 8v16q0 8 8 8h16v55l-5 -1q-4 0 -7 3l-8 14q-1 0 -1.5 1.5t-0.5 2.5q0 4 4 7l15 10q6 4 13 4h14q8 0 8 -8v-88h16q8 0 8 -8v-16zM608 384h-576
q-13 0 -22.5 -9.5t-9.5 -22.5v-320q0 -13 9.5 -22.5t22.5 -9.5h576q13 0 22.5 9.5t9.5 22.5v320q0 13 -9.5 22.5t-22.5 9.5zM592 112q-27 0 -45.5 -18.5t-18.5 -45.5h-416q0 27 -18.5 45.5t-45.5 18.5v160q27 0 45.5 18.5t18.5 45.5h416q0 -27 18.5 -45.5t45.5 -18.5v-160z
" />
    <glyph glyph-name="window-close" unicode="&#xf410;" 
d="M464 416h-416q-20 0 -34 -14t-14 -34v-352q0 -20 14 -34t34 -14h416q20 0 34 14t14 34v352q0 20 -14 34t-34 14zM464 22q0 -6 -6 -6h-404q-6 0 -6 6v340q0 6 6 6h404q6 0 6 -6v-340zM356 253l-61 -61l61 -61q4 -4 4 -9t-4 -8l-22 -22q-3 -4 -8 -4t-9 4l-61 61l-61 -61
q-4 -4 -9 -4t-8 4l-22 22q-9 8 0 17l61 61l-61 61q-9 9 0 17l22 23q8 8 17 0l61 -62l61 62q9 8 17 0l22 -23q9 -8 0 -17z" />
    <glyph glyph-name="comment-dots" unicode="&#xf4ad;" 
d="M144 240q-13 0 -22.5 -9.5t-9.5 -22.5t9.5 -22.5t22.5 -9.5t22.5 9.5t9.5 22.5t-9.5 22.5t-22.5 9.5zM256 240q-13 0 -22.5 -9.5t-9.5 -22.5t9.5 -22.5t22.5 -9.5t22.5 9.5t9.5 22.5t-9.5 22.5t-22.5 9.5zM368 240q-13 0 -22.5 -9.5t-9.5 -22.5t9.5 -22.5t22.5 -9.5
t22.5 9.5t9.5 22.5t-9.5 22.5t-22.5 9.5zM256 416q-106 0 -181 -61t-75 -147q0 -70 53 -126q-7 -18 -18.5 -36.5t-19 -27t-9.5 -10.5q-10 -11 -4 -25.5t22 -14.5q74 0 139 46q46 -14 93 -14q106 0 181 61t75 147t-75 147t-181 61zM256 48q-40 0 -78 12l-23 7l-20 -13
q-27 -20 -57 -30q12 21 20 41l10 28l-20 22q-40 42 -40 93q0 66 61 113t147 47t147 -47t61 -113t-61 -113t-147 -47z" />
    <glyph glyph-name="smile-wink" unicode="&#xf4da;" horiz-adv-x="496" 
d="M248 440q-103 0 -175.5 -72.5t-72.5 -175.5t72.5 -175.5t175.5 -72.5t175.5 72.5t72.5 175.5t-72.5 175.5t-175.5 72.5zM248 -8q-83 0 -141.5 58.5t-58.5 141.5t58.5 141.5t141.5 58.5t141.5 -58.5t58.5 -141.5t-58.5 -141.5t-141.5 -58.5zM365.5 138.5
q-7.5 6.5 -17.5 5.5t-16 -9q-33 -39 -84 -39t-84 39q-6 8 -16 9t-17.5 -5.5t-8.5 -16.5t5 -17q47 -57 121 -57t121 57q6 7 5 17t-8.5 16.5zM168 208q13 0 22.5 9.5t9.5 22.5t-9.5 22.5t-22.5 9.5t-22.5 -9.5t-9.5 -22.5t9.5 -22.5t22.5 -9.5zM328 268q-13 0 -26 -5
t-22.5 -15t-11.5 -22q-1 -8 6.5 -12t13.5 1l9 9q12 10 31 10t30 -10l10 -9q6 -5 13.5 -1t6.5 12q-3 18 -21.5 30t-38.5 12z" />
    <glyph glyph-name="angry" unicode="&#xf556;" horiz-adv-x="496" 
d="M248 440q-103 0 -175.5 -72.5t-72.5 -175.5t72.5 -175.5t175.5 -72.5t175.5 72.5t72.5 175.5t-72.5 175.5t-175.5 72.5zM248 -8q-83 0 -141.5 58.5t-58.5 141.5t58.5 141.5t141.5 58.5t141.5 -58.5t58.5 -141.5t-58.5 -141.5t-141.5 -58.5zM248 136q-53 0 -87 -41
q-3 -3 -4.5 -8t-1 -9.5t3 -8.5t5.5 -7q8 -7 18 -6t16 9q19 22 50 22t50 -22q6 -8 16 -9t18 6q7 6 8 16t-5 17q-16 20 -39 30.5t-48 10.5zM200 208q5 0 9.5 2t8 6t5.5 9q3 10 -2 18.5t-14 11.5l-80 24q-10 3 -18.5 -2t-11.5 -14.5t2 -18t14 -11.5l28 -9q-2 -3 -3.5 -7.5
t-1.5 -8.5q0 -13 9.5 -22.5t22.5 -9.5t22.5 9.5t9.5 22.5zM399 262.5q-3 9.5 -11.5 14.5t-18.5 2l-80 -24q-5 -1 -8.5 -4.5t-5.5 -7.5t-3 -8.5t1 -9.5q5 -17 23 -17q0 -13 9.5 -22.5t22.5 -9.5t22.5 9.5t9.5 22.5q0 4 -1.5 8.5t-3.5 8.5l28 8q9 3 14 11.5t2 18z" />
    <glyph glyph-name="dizzy" unicode="&#xf567;" horiz-adv-x="496" 
d="M248 440q-103 0 -175.5 -72.5t-72.5 -175.5t72.5 -175.5t175.5 -72.5t175.5 72.5t72.5 175.5t-72.5 175.5t-175.5 72.5zM248 -8q-83 0 -141.5 58.5t-58.5 141.5t58.5 141.5t141.5 58.5t141.5 -58.5t58.5 -141.5t-58.5 -141.5t-141.5 -58.5zM214 210q6 6 6 14t-6 14
l-18 18l18 18q4 4 5.5 9t0 10t-5.5 9q-6 6 -14 6t-14 -6l-18 -18l-18 18q-6 6 -14 6t-14 -6q-2 -2 -3 -3.5t-2 -4t-1 -4.5v-4t1 -4.5t2 -4.5t3 -3l18 -18l-18 -18q-3 -3 -4.5 -6.5t-1.5 -7.5t1.5 -7.5t4.5 -6.5q6 -6 14 -6t14 6l18 18l18 -18q1 -2 3 -3t4.5 -2t4.5 -1h4
t4.5 1t4.5 2t3 3zM374 302q-6 6 -14 6t-14 -6l-18 -18l-18 18q-6 6 -14 6t-14 -6q-4 -4 -5.5 -9t0 -10t5.5 -9l18 -18l-18 -18q-4 -4 -5.5 -9t0 -10t5.5 -9q6 -6 14 -6t14 6l18 18l18 -18q6 -6 14 -6t14 6t6 14t-6 14l-18 18l18 18q6 6 6 14t-6 14zM248 176q-26 0 -45 -19
t-19 -45t19 -45t45 -19t45 19t19 45t-19 45t-45 19z" />
    <glyph glyph-name="flushed" unicode="&#xf579;" horiz-adv-x="496" 
d="M248 440q-103 0 -175.5 -72.5t-72.5 -175.5t72.5 -175.5t175.5 -72.5t175.5 72.5t72.5 175.5t-72.5 175.5t-175.5 72.5zM248 -8q-83 0 -141.5 58.5t-58.5 141.5t58.5 141.5t141.5 58.5t141.5 -58.5t58.5 -141.5t-58.5 -141.5t-141.5 -58.5zM344 304q-33 0 -56.5 -23.5
t-23.5 -56.5t23.5 -56.5t56.5 -23.5t56.5 23.5t23.5 56.5t-23.5 56.5t-56.5 23.5zM344 176q-20 0 -34 14t-14 34t14 34t34 14t34 -14t14 -34t-14 -34t-34 -14zM344 248q-10 0 -17 -7t-7 -17t7 -17t17 -7t17 7t7 17t-7 17t-17 7zM232 224q0 33 -23.5 56.5t-56.5 23.5
t-56.5 -23.5t-23.5 -56.5t23.5 -56.5t56.5 -23.5t56.5 23.5t23.5 56.5zM152 176q-20 0 -34 14t-14 34t14 34t34 14t34 -14t14 -34t-14 -34t-34 -14zM152 248q-10 0 -17 -7t-7 -17t7 -17t17 -7t17 7t7 17t-7 17t-17 7zM312 104h-128q-10 0 -17 -7t-7 -17t7 -17t17 -7h128
q10 0 17 7t7 17t-7 17t-17 7z" />
    <glyph glyph-name="frown-open" unicode="&#xf57a;" horiz-adv-x="496" 
d="M248 440q-103 0 -175.5 -72.5t-72.5 -175.5t72.5 -175.5t175.5 -72.5t175.5 72.5t72.5 175.5t-72.5 175.5t-175.5 72.5zM248 -8q-83 0 -141.5 58.5t-58.5 141.5t58.5 141.5t141.5 58.5t141.5 -58.5t58.5 -141.5t-58.5 -141.5t-141.5 -58.5zM200 240q0 13 -9.5 22.5
t-22.5 9.5t-22.5 -9.5t-9.5 -22.5t9.5 -22.5t22.5 -9.5t22.5 9.5t9.5 22.5zM328 272q-13 0 -22.5 -9.5t-9.5 -22.5t9.5 -22.5t22.5 -9.5t22.5 9.5t9.5 22.5t-9.5 22.5t-22.5 9.5zM248 160q-30 0 -60.5 -17t-35.5 -44q-1 -9 5.5 -15t15.5 -3q49 15 75 15q8 0 19.5 -2t26 -5.5
t29.5 -7.5q9 -3 15.5 3t5.5 15q-5 27 -35.5 44t-60.5 17z" />
    <glyph glyph-name="grimace" unicode="&#xf57f;" horiz-adv-x="496" 
d="M248 440q-103 0 -175.5 -72.5t-72.5 -175.5t72.5 -175.5t175.5 -72.5t175.5 72.5t72.5 175.5t-72.5 175.5t-175.5 72.5zM248 -8q-83 0 -141.5 58.5t-58.5 141.5t58.5 141.5t141.5 58.5t141.5 -58.5t58.5 -141.5t-58.5 -141.5t-141.5 -58.5zM168 208q13 0 22.5 9.5
t9.5 22.5t-9.5 22.5t-22.5 9.5t-22.5 -9.5t-9.5 -22.5t9.5 -22.5t22.5 -9.5zM328 208q13 0 22.5 9.5t9.5 22.5t-9.5 22.5t-22.5 9.5t-22.5 -9.5t-9.5 -22.5t9.5 -22.5t22.5 -9.5zM344 192h-192q-20 0 -34 -14t-14 -34v-32q0 -20 14 -34t34 -14h192q20 0 34 14t14 34v32
q0 20 -14 34t-34 14zM176 96h-24q-7 0 -11.5 4.5t-4.5 11.5v8h40v-24zM176 136h-40v8q0 7 4.5 11.5t11.5 4.5h24v-24zM240 96h-48v24h48v-24zM240 136h-48v24h48v-24zM304 96h-48v24h48v-24zM304 136h-48v24h48v-24zM360 112q0 -7 -4.5 -11.5t-11.5 -4.5h-24v24h40v-8z
M360 136h-40v24h24q7 0 11.5 -4.5t4.5 -11.5v-8z" />
    <glyph glyph-name="grin" unicode="&#xf580;" horiz-adv-x="496" 
d="M248 440q-103 0 -175.5 -72.5t-72.5 -175.5t72.5 -175.5t175.5 -72.5t175.5 72.5t72.5 175.5t-72.5 175.5t-175.5 72.5zM248 -8q-83 0 -141.5 58.5t-58.5 141.5t58.5 141.5t141.5 58.5t141.5 -58.5t58.5 -141.5t-58.5 -141.5t-141.5 -58.5zM354 143q-41 -13 -106 -13
q-31 0 -58.5 3.5t-47.5 9.5q-7 3 -13 -2t-4 -13q1 -7 3.5 -13.5t7 -12.5t9.5 -12t11.5 -10.5t13.5 -9t14.5 -8t15.5 -6t16 -4.5t16 -3t16 -1q41 0 79.5 23t43.5 57q2 8 -4 13t-13 2zM168 208q13 0 22.5 9.5t9.5 22.5t-9.5 22.5t-22.5 9.5t-22.5 -9.5t-9.5 -22.5t9.5 -22.5
t22.5 -9.5zM328 208q13 0 22.5 9.5t9.5 22.5t-9.5 22.5t-22.5 9.5t-22.5 -9.5t-9.5 -22.5t9.5 -22.5t22.5 -9.5z" />
    <glyph glyph-name="grin-alt" unicode="&#xf581;" horiz-adv-x="496" 
d="M200 200q15 22 16 56q-1 34 -16 56q-2 3 -4.5 5t-5.5 3t-6 1t-6 -1t-6 -3t-4 -5q-15 -22 -16 -56q1 -34 16 -56q2 -4 5.5 -6t7 -2.5t7.5 0t7 3t5 5.5zM328 200q15 22 16 56q0 16 -3.5 29.5t-12.5 26.5q-6 9 -16.5 9t-15.5 -9q-15 -22 -16 -56q1 -34 16 -56q2 -4 5.5 -6
t7 -2.5t7.5 0t7 3t5 5.5zM248 440q-103 0 -175.5 -72.5t-72.5 -175.5t72.5 -175.5t175.5 -72.5t175.5 72.5t72.5 175.5t-72.5 175.5t-175.5 72.5zM248 -8q-83 0 -141.5 58.5t-58.5 141.5t58.5 141.5t141.5 58.5t141.5 -58.5t58.5 -141.5t-58.5 -141.5t-141.5 -58.5zM354 143
q-41 -13 -106 -13q-31 0 -58.5 3.5t-47.5 9.5q-7 3 -13 -2t-4 -13q1 -7 3.5 -13.5t7 -12.5t9.5 -12t11.5 -10.5t13.5 -9t14.5 -8t15.5 -6t16 -4.5t16 -3t16 -1q41 0 79.5 23t43.5 57q2 8 -4 13t-13 2z" />
    <glyph glyph-name="grin-beam" unicode="&#xf582;" horiz-adv-x="496" 
d="M248 440q-103 0 -175.5 -72.5t-72.5 -175.5t72.5 -175.5t175.5 -72.5t175.5 72.5t72.5 175.5t-72.5 175.5t-175.5 72.5zM248 -8q-83 0 -141.5 58.5t-58.5 141.5t58.5 141.5t141.5 58.5t141.5 -58.5t58.5 -141.5t-58.5 -141.5t-141.5 -58.5zM354 143q-41 -13 -106 -13
q-31 0 -58.5 3.5t-47.5 9.5q-7 3 -13 -2t-4 -13q1 -7 3.5 -13.5t7 -12.5t9.5 -12t11.5 -10.5t13.5 -9t14.5 -8t15.5 -6t16 -4.5t16 -3t16 -1q41 0 79.5 23t43.5 57q2 8 -4 13t-13 2zM118 216q6 -2 9 4l9 17q13 22 32 22t32 -22l9 -17q3 -6 9.5 -4t5.5 9q-2 30 -19.5 50.5
t-36.5 20.5t-36.5 -20.5t-19.5 -50.5q1 -6 6 -9zM278 216h3.5t3 1t2.5 3l10 17q12 22 31 22t32 -22l9 -17q3 -6 9.5 -4t5.5 9q-2 30 -19.5 50.5t-36.5 20.5t-36.5 -20.5t-19.5 -50.5q1 -6 6 -9z" />
    <glyph glyph-name="grin-beam-sweat" unicode="&#xf583;" horiz-adv-x="496" 
d="M440 288q11 0 21 4.5t17 12.5t11 19t4 23q0 16 -14.5 43.5t-31.5 53.5q-3 4 -7 4t-7 -4q-5 -8 -10.5 -16t-12 -20t-11.5 -22.5t-8.5 -21t-3.5 -17.5q0 -38 31 -54q11 -5 22 -5zM248 48q41 0 79.5 23t43.5 57q1 4 -0.5 7t-4 5.5t-6 3.5t-6.5 -1q-41 -13 -106 -13
q-31 0 -58.5 3.5t-47.5 9.5q-7 3 -13 -2t-4 -13q7 -43 64 -67q30 -13 59 -13zM378.5 216.5q6.5 1.5 5.5 8.5q-2 30 -19.5 50.5t-36.5 20.5t-36.5 -20.5t-19.5 -50.5q0 -2 0.5 -4t2 -3t3.5 -2t5 0.5t4 3.5l9 17q13 22 32 22t32 -22l9 -17q3 -5 9.5 -3.5zM484 269
q-21 -13 -47 -13q5 -15 8 -31t3 -33q0 -83 -58.5 -141.5t-141.5 -58.5t-141.5 58.5t-58.5 141.5t58.5 141.5t141.5 58.5q58 0 108 -32q1 5 3 11t5.5 15.5t8.5 19.5q-58 34 -125 34q-103 0 -175.5 -72.5t-72.5 -175.5t72.5 -175.5t175.5 -72.5t175.5 72.5t72.5 175.5
q0 40 -12 77zM168 259q19 0 32 -22l9 -17q3 -6 9.5 -4t5.5 9q-2 30 -19.5 50.5t-36.5 20.5q-12 0 -24 -9t-21 -25.5t-11 -36.5q1 -6 6 -9q6 -2 9 4l9 17q13 22 32 22z" />
    <glyph glyph-name="grin-hearts" unicode="&#xf584;" horiz-adv-x="496" 
d="M354 143q-41 -13 -106 -13q-31 0 -58.5 3.5t-47.5 9.5q-7 3 -13 -2t-4 -13q1 -7 3.5 -13.5t7 -12.5t9.5 -12t11.5 -10.5t13.5 -9t14.5 -8t15.5 -6t16 -4.5t16 -3t16 -1q41 0 79.5 23t43.5 57q2 8 -4 13t-13 2zM201 192q8 -2 10 6l20 70q2 10 -0.5 20t-10.5 16.5t-18 8.5
h-7t-6.5 -1t-6.5 -2t-6 -3t-5.5 -4.5t-4.5 -5.5t-3.5 -6t-2.5 -6l-2 -7l-7 2q-14 3 -27 -3t-18 -19q-3 -11 -1 -20.5t9 -17t17 -10.5zM390 258q-5 13 -18 19t-27 3l-7 -2l-2 7q-4 14 -16 22t-26 6q-16 -3 -24.5 -16t-4.5 -29l20 -70q2 -8 10 -6l70 18q16 4 23 18.5t2 29.5z
M248 440q-103 0 -175.5 -72.5t-72.5 -175.5t72.5 -175.5t175.5 -72.5t175.5 72.5t72.5 175.5t-72.5 175.5t-175.5 72.5zM248 -8q-83 0 -141.5 58.5t-58.5 141.5t58.5 141.5t141.5 58.5t141.5 -58.5t58.5 -141.5t-58.5 -141.5t-141.5 -58.5z" />
    <glyph glyph-name="grin-squint" unicode="&#xf585;" horiz-adv-x="496" 
d="M248 440q-103 0 -175.5 -72.5t-72.5 -175.5t72.5 -175.5t175.5 -72.5t175.5 72.5t72.5 175.5t-72.5 175.5t-175.5 72.5zM248 -8q-83 0 -141.5 58.5t-58.5 141.5t58.5 141.5t141.5 58.5t141.5 -58.5t58.5 -141.5t-58.5 -141.5t-141.5 -58.5zM354 143q-41 -13 -106 -13
q-31 0 -58.5 3.5t-47.5 9.5q-7 3 -13 -2t-4 -13q1 -7 3.5 -13.5t7 -12.5t9.5 -12t11.5 -10.5t13.5 -9t14.5 -8t15.5 -6t16 -4.5t16 -3t16 -1q41 0 79.5 23t43.5 57q2 8 -4 13t-13 2zM119 184q6 -7 15 -2l80 48q6 3 6 10t-6 10l-80 48q-8 4 -15 -2q-7 -8 0 -16l33 -40
l-33 -40q-5 -8 0 -16zM362 182q9 -5 15.5 2.5t-0.5 15.5l-33 40l33 40q7 8 0 16q-6 7 -15 2l-80 -48q-3 -1 -4.5 -4t-1.5 -6q0 -7 6 -10z" />
    <glyph glyph-name="grin-squint-tears" unicode="&#xf586;" 
d="M117 64q-82 -12 -101 -31q-16 -16 -16 -39.5t17 -40.5t40.5 -17t39.5 16q19 19 31 101q1 5 -2.5 8.5t-8.5 2.5zM76 106q-27 55 -17 118.5t56 108.5q58 59 141 59q13 0 26.5 -2t26 -5.5t25 -8.5t23.5 -12q3 15 6 27t6 22q-53 27 -113 27q-103 0 -175 -73q-78 -77 -73 -187
q3 -45 21 -87q20 7 47 13zM428 293q34 -57 26 -125.5t-57 -116.5q-28 -29 -64.5 -44t-76.5 -15q-45 0 -86 20l-13 -47q48 -21 99 -21q103 0 176 73q57 57 69 138t-24 150q-20 -6 -49 -12zM395 320q5 1 10 1.5t11.5 2t12.5 2.5t13 2.5t13.5 3.5t12.5 4t11 4.5t9.5 5t7.5 5.5
q16 16 16 39.5t-17 40.5t-40.5 17t-39.5 -16q-19 -19 -31 -101q-1 -5 2.5 -8.5t8.5 -2.5zM208 212q-2 2 -5 3t-7 0l-90 -23q-10 -2 -9 -12t11 -11l52 -5l5 -52q1 -10 11 -11h1q9 0 11 9l23 90q2 7 -3 12zM248 237l90 23q10 2 9 12t-11 11l-52 5l-5 52q-1 10 -11 11
q-10 0 -12 -9l-23 -90q-2 -7 3 -12q3 -3 12 -3zM300 148q-15 -14 -29.5 -26.5t-28.5 -22.5t-26 -16q-3 -1 -5 -3.5t-2.5 -5t0 -5.5t2 -5.5t3.5 -3.5q31 -20 73 -9.5t71 39.5q13 14 23.5 33t15.5 38.5t3 39t-12 33.5q-4 6 -11.5 5.5t-11.5 -7.5q-19 -37 -65 -84z" />
    <glyph glyph-name="grin-stars" unicode="&#xf587;" horiz-adv-x="496" 
d="M248 440q-103 0 -175.5 -72.5t-72.5 -175.5t72.5 -175.5t175.5 -72.5t175.5 72.5t72.5 175.5t-72.5 175.5t-175.5 72.5zM248 -8q-83 0 -141.5 58.5t-58.5 141.5t58.5 141.5t141.5 58.5t141.5 -58.5t58.5 -141.5t-58.5 -141.5t-141.5 -58.5zM354 143q-41 -13 -106 -13
q-31 0 -58.5 3.5t-47.5 9.5q-7 3 -13 -2t-4 -13q1 -7 3.5 -13.5t7 -12.5t9.5 -12t11.5 -10.5t13.5 -9t14.5 -8t15.5 -6t16 -4.5t16 -3t16 -1q41 0 79.5 23t43.5 57q2 8 -4 13t-13 2zM126 201q-1 -5 3 -7.5t8 -0.5l31 16l31 -16q3 -1 5.5 -0.5t4.5 3t1 5.5l-6 35l26 24
q3 4 1.5 8.5t-6.5 5.5l-35 5l-15 31q-1 3 -4 4t-5.5 0t-4.5 -4l-15 -31l-35 -5q-3 -1 -5 -3t-2 -5t2 -6l26 -24zM385 274l-35 5l-15 31q-2 5 -7 5t-7 -5l-15 -31l-35 -5q-3 -1 -5 -3t-2 -5t2 -6l26 -24l-6 -35q-1 -3 1 -5.5t4.5 -3t5.5 0.5l31 16l31 -16q3 -1 6 -0.5t4.5 3
t0.5 5.5l-6 35l26 24q3 4 1.5 8.5t-6.5 5.5z" />
    <glyph glyph-name="grin-tears" unicode="&#xf588;" horiz-adv-x="640" 
d="M117 192q-82 -12 -101 -31q-16 -16 -16 -39.5t17 -40.5t40.5 -17t39.5 16q19 19 31 101q1 5 -2.5 8.5t-8.5 2.5zM624 161q-4 4 -11.5 8t-17 7t-19 5.5t-20 4.5t-18 3.5t-15.5 2.5q-5 1 -8.5 -2.5t-2.5 -8.5q3 -18 6 -34.5t10 -37.5t15 -29q16 -16 39.5 -16t40.5 17
t17 40.5t-16 39.5zM497 100q-25 -49 -72.5 -78.5t-104.5 -29.5t-104.5 29.5t-72.5 78.5q-11 -32 -29 -47q23 -33 54.5 -57.5t70.5 -38t81 -13.5q63 0 117 29.5t89 79.5q-18 15 -29 47zM123 224q11 72 67 120t130 48t130 -48t67 -120q12 1 50 -8q-10 95 -80.5 159.5
t-166.5 64.5t-166.5 -64.5t-80.5 -158.5q39 8 50 7zM320 48q41 0 79.5 23t43.5 57q2 7 -4 12.5t-13 2.5q-41 -13 -106 -13q-31 0 -58.5 3.5t-47.5 9.5q-7 3 -13 -2t-4 -13q5 -34 43.5 -57t79.5 -23zM450.5 216.5q6.5 1.5 5.5 8.5q-2 30 -19.5 50.5t-36.5 20.5t-36.5 -20.5
t-19.5 -50.5q1 -6 6 -9q2 -1 5 0.5t4 3.5l9 17q13 22 32 22t32 -22l9 -17q3 -5 9.5 -3.5zM240 259q19 0 32 -22l9 -17q3 -6 9.5 -4t5.5 9q-2 30 -19.5 50.5t-36.5 20.5q-4 0 -9 -1.5t-9.5 -4t-9 -6t-8.5 -8.5t-7.5 -10.5t-6 -12t-4 -14t-2.5 -14.5q0 -3 1.5 -5.5t4.5 -3.5
q6 -2 9 4l9 17q13 22 32 22z" />
    <glyph glyph-name="grin-tongue" unicode="&#xf589;" horiz-adv-x="496" 
d="M248 440q-103 0 -175.5 -72.5t-72.5 -175.5t72.5 -175.5t175.5 -72.5t175.5 72.5t72.5 175.5t-72.5 175.5t-175.5 72.5zM312 40q0 -27 -19 -45.5t-46 -18.5q-26 0 -44.5 19.5t-18.5 45.5v43l18 9q7 3 14.5 2t13 -6.5t7.5 -12.5l2 -12q2 -7 9 -7t9 7l3 12q2 11 12.5 16.5
t21.5 0.5l18 -9v-44zM340 15q2 6 3 12.5t1 12.5v44q23 20 27 44q1 4 -0.5 7t-4 5.5t-6 3.5t-6.5 -1q-41 -13 -106 -13q-31 0 -58.5 3.5t-47.5 9.5q-4 2 -8.5 0t-7 -6t-1.5 -9q4 -24 27 -44v-44q0 -11 4 -25q-49 25 -78.5 72.5t-29.5 104.5q0 83 58.5 141.5t141.5 58.5
t141.5 -58.5t58.5 -141.5q0 -57 -29.5 -104.5t-78.5 -72.5zM168 272q-13 0 -22.5 -9.5t-9.5 -22.5t9.5 -22.5t22.5 -9.5t22.5 9.5t9.5 22.5t-9.5 22.5t-22.5 9.5zM328 272q-13 0 -22.5 -9.5t-9.5 -22.5t9.5 -22.5t22.5 -9.5t22.5 9.5t9.5 22.5t-9.5 22.5t-22.5 9.5z" />
    <glyph glyph-name="grin-tongue-squint" unicode="&#xf58a;" horiz-adv-x="496" 
d="M248 440q-103 0 -175.5 -72.5t-72.5 -175.5t72.5 -175.5t175.5 -72.5t175.5 72.5t72.5 175.5t-72.5 175.5t-175.5 72.5zM312 40q0 -27 -19 -45.5t-46 -18.5q-26 0 -44.5 19.5t-18.5 45.5v43l18 9q7 3 14.5 2t13 -6.5t7.5 -12.5l2 -12q2 -7 9 -7t9 7l3 12q2 11 12.5 16.5
t21.5 0.5l18 -9v-44zM340 15q2 6 3 12.5t1 12.5v44q23 20 27 44q1 4 -0.5 7t-4 5.5t-6 3.5t-6.5 -1q-41 -13 -106 -13q-31 0 -58.5 3.5t-47.5 9.5q-4 2 -8.5 0t-7 -6t-1.5 -9q4 -24 27 -44v-44q0 -11 4 -25q-49 25 -78.5 72.5t-29.5 104.5q0 83 58.5 141.5t141.5 58.5
t141.5 -58.5t58.5 -141.5q0 -57 -29.5 -104.5t-78.5 -72.5zM377 295.5q-7 7.5 -15 2.5l-80 -48q-3 -1 -4.5 -4t-1.5 -6q0 -7 6 -10l80 -48q4 -3 8 -2t7 4q7 8 0 16l-33 40l33 40q7 8 0 15.5zM214 250l-80 48q-8 5 -15 -2.5t0 -15.5l33 -40l-33 -40q-7 -8 -0.5 -15.5
t15.5 -2.5l80 48q6 3 6 10t-6 10z" />
    <glyph glyph-name="grin-tongue-wink" unicode="&#xf58b;" horiz-adv-x="496" 
d="M152 268q-20 0 -38.5 -12t-21.5 -30q0 -3 0.5 -5t2 -4t3.5 -3t4 -1.5t3.5 -0.5t3.5 1t3 2l10 9q11 10 30 10t30 -10l10 -9q6 -5 13.5 -1t6.5 12q-3 18 -21.5 30t-38.5 12zM328 320q-33 0 -56.5 -23.5t-23.5 -56.5t23.5 -56.5t56.5 -23.5t56.5 23.5t23.5 56.5t-23.5 56.5
t-56.5 23.5zM328 192q-20 0 -34 14t-14 34t14 34t34 14t34 -14t14 -34t-14 -34t-34 -14zM328 264q-10 0 -17 -7t-7 -17t7 -17t17 -7t17 7t7 17t-7 17t-17 7zM248 440q-103 0 -175.5 -72.5t-72.5 -175.5t72.5 -175.5t175.5 -72.5t175.5 72.5t72.5 175.5t-72.5 175.5
t-175.5 72.5zM312 40q0 -27 -19 -45.5t-46 -18.5q-26 0 -44.5 19.5t-18.5 45.5v43l18 9q7 3 14.5 2t13 -6.5t7.5 -12.5l2 -12q2 -7 9 -7t9 7l3 12q2 11 12.5 16.5t21.5 0.5l18 -9v-44zM340 15q2 6 3 12.5t1 12.5v44q23 20 27 44q1 4 -0.5 7t-4 5.5t-6 3.5t-6.5 -1
q-41 -13 -106 -13q-31 0 -58.5 3.5t-47.5 9.5q-4 2 -8.5 0t-7 -6t-1.5 -9q4 -24 27 -44v-44q0 -11 4 -25q-49 25 -78.5 72.5t-29.5 104.5q0 83 58.5 141.5t141.5 58.5t141.5 -58.5t58.5 -141.5q0 -57 -29.5 -104.5t-78.5 -72.5z" />
    <glyph glyph-name="grin-wink" unicode="&#xf58c;" horiz-adv-x="496" 
d="M328 268q-13 0 -26 -5t-22.5 -15t-11.5 -22q-1 -9 6.5 -13t13.5 2l10 9q7 6 18.5 8.5t23 0t18.5 -8.5l10 -9q6 -6 13.5 -1.5t6.5 12.5q-2 12 -11.5 22t-22.5 15t-26 5zM168 208q13 0 22.5 9.5t9.5 22.5t-9.5 22.5t-22.5 9.5t-22.5 -9.5t-9.5 -22.5t9.5 -22.5t22.5 -9.5z
M354 143q-20 -6 -47.5 -9.5t-58.5 -3.5q-65 0 -106 13q-7 3 -13 -2t-4 -13q5 -34 43.5 -57t79.5 -23t79.5 23t43.5 57q1 5 -1.5 9t-7 6t-8.5 0zM248 440q-103 0 -175.5 -72.5t-72.5 -175.5t72.5 -175.5t175.5 -72.5t175.5 72.5t72.5 175.5t-72.5 175.5t-175.5 72.5zM248 -8
q-83 0 -141.5 58.5t-58.5 141.5t58.5 141.5t141.5 58.5t141.5 -58.5t58.5 -141.5t-58.5 -141.5t-141.5 -58.5z" />
    <glyph glyph-name="kiss" unicode="&#xf596;" horiz-adv-x="496" 
d="M168 272q-13 0 -22.5 -9.5t-9.5 -22.5t9.5 -22.5t22.5 -9.5t22.5 9.5t9.5 22.5t-9.5 22.5t-22.5 9.5zM304 140q0 15 -20.5 28.5t-51.5 15.5q-6 1 -8 -6q0 -2 0.5 -4t1.5 -3.5t3 -1.5l17 -8q6 -2 11 -5.5t7.5 -7.5t2.5 -8q0 -13 -21 -22l-17 -7q-4 -2 -4 -7.5t4 -7.5
l17 -7q10 -4 15.5 -9.5t5.5 -11.5q0 -13 -21 -22l-17 -7q-2 -1 -3 -2.5t-1.5 -3t-0.5 -3.5q2 -6 8 -6h1q30 1 50.5 14.5t20.5 29.5q0 22 -35 36q35 14 35 36zM248 440q-103 0 -175.5 -72.5t-72.5 -175.5t72.5 -175.5t175.5 -72.5t175.5 72.5t72.5 175.5t-72.5 175.5
t-175.5 72.5zM248 -8q-83 0 -141.5 58.5t-58.5 141.5t58.5 141.5t141.5 58.5t141.5 -58.5t58.5 -141.5t-58.5 -141.5t-141.5 -58.5zM328 272q-13 0 -22.5 -9.5t-9.5 -22.5t9.5 -22.5t22.5 -9.5t22.5 9.5t9.5 22.5t-9.5 22.5t-22.5 9.5z" />
    <glyph glyph-name="kiss-beam" unicode="&#xf597;" horiz-adv-x="496" 
d="M168 296q-19 0 -36.5 -20.5t-19.5 -50.5q0 -3 1.5 -5.5t4.5 -3.5q6 -1 9 4l9 17q13 22 32 22t31 -22l10 -17q1 -3 4 -4t5 0q6 2 6 9q-2 30 -19.5 50.5t-36.5 20.5zM248 440q-103 0 -175.5 -72.5t-72.5 -175.5t72.5 -175.5t175.5 -72.5t175.5 72.5t72.5 175.5t-72.5 175.5
t-175.5 72.5zM248 -8q-83 0 -141.5 58.5t-58.5 141.5t58.5 141.5t141.5 58.5t141.5 -58.5t58.5 -141.5t-58.5 -141.5t-141.5 -58.5zM304 140q0 15 -20.5 28.5t-51.5 15.5q-6 1 -8 -6q0 -2 0.5 -4t1.5 -3.5t3 -1.5l17 -8q6 -2 11 -5.5t7.5 -7.5t2.5 -8q0 -13 -21 -22l-17 -7
q-4 -2 -4 -7.5t4 -7.5l17 -7q10 -4 15.5 -9.5t5.5 -11.5q0 -13 -21 -22l-17 -7q-2 -1 -3 -2.5t-1.5 -3t-0.5 -3.5q2 -6 8 -6h1q30 1 50.5 14.5t20.5 29.5q0 22 -35 36q35 14 35 36zM328 296q-19 0 -36.5 -20.5t-19.5 -50.5q0 -3 1.5 -5.5t4.5 -3.5q6 -1 9 4l9 17
q13 22 32 22t31 -22l10 -17q3 -6 9 -4t6 9q-2 20 -11 36.5t-21 25.5t-24 9z" />
    <glyph glyph-name="kiss-wink-heart" unicode="&#xf598;" horiz-adv-x="504" 
d="M304 140q0 15 -20.5 28.5t-51.5 15.5q-6 0 -8 -7q0 -2 0.5 -3.5t1.5 -3t3 -2.5l17 -7q6 -3 11 -6.5t7.5 -7.5t2.5 -8q0 -12 -21 -21l-17 -7q-4 -2 -4 -7.5t4 -7.5l17 -7q10 -4 15.5 -10t5.5 -12q0 -12 -21 -21l-17 -7q-5 -4 -5 -10q2 -6 8 -6h1q30 2 50.5 15.5t20.5 28.5
q0 22 -35 36q34 15 35 37zM374 223l10 -9q7 -4 14 -1q3 2 4.5 5.5t1.5 6.5q-3 18 -21.5 30t-38.5 12t-38.5 -12t-21.5 -30q-1 -8 6.5 -12t13.5 1l10 9q11 10 30 10t30 -10zM136 239.5q0 -13.5 9.5 -22.5t22.5 -9t22.5 9t9.5 23q0 8 -4.5 15.5t-11.5 12t-16 4.5
q-13 0 -22.5 -9.5t-9.5 -23zM501 46q-6 15 -21.5 22.5t-31.5 2.5l-8 -2l-3 9q-3 10 -10 18.5t-17.5 12t-21.5 2.5q-19 -3 -29 -19t-5 -34l23 -83q3 -9 13 -7l83 22q18 5 26.5 21.5t1.5 34.5zM334 12q-41 -20 -86 -20q-83 0 -141.5 58.5t-58.5 141.5t58.5 141.5t141.5 58.5
t141.5 -58.5t58.5 -141.5q0 -32 -10 -63q15 -11 22 -24q8 0 19 -3q8 21 12.5 44t4.5 46q0 67 -33 124.5t-90.5 90.5t-124.5 33q-103 0 -175.5 -72.5t-72.5 -175.5t72.5 -175.5t175.5 -72.5q52 0 99 21q-2 7 -13 47z" />
    <glyph glyph-name="laugh" unicode="&#xf599;" horiz-adv-x="496" 
d="M248 440q-103 0 -175.5 -72.5t-72.5 -175.5t72.5 -175.5t175.5 -72.5t175.5 72.5t72.5 175.5t-72.5 175.5t-175.5 72.5zM389 51q-28 -29 -64.5 -44t-76.5 -15q-83 0 -141.5 58.5t-58.5 141.5t58.5 141.5t141.5 58.5t141.5 -58.5t58.5 -141.5t-59 -141zM328 224
q13 0 22.5 9.5t9.5 22.5t-9.5 22.5t-22.5 9.5t-22.5 -9.5t-9.5 -22.5t9.5 -22.5t22.5 -9.5zM168 224q13 0 22.5 9.5t9.5 22.5t-9.5 22.5t-22.5 9.5t-22.5 -9.5t-9.5 -22.5t9.5 -22.5t22.5 -9.5zM362 160h-228q-7 0 -11 -4.5t-3 -10.5q6 -45 40.5 -75t80.5 -30h14
q46 0 80.5 30t40.5 75q1 6 -3 10.5t-11 4.5z" />
    <glyph glyph-name="laugh-beam" unicode="&#xf59a;" horiz-adv-x="496" 
d="M248 440q-103 0 -175.5 -72.5t-72.5 -175.5t72.5 -175.5t175.5 -72.5t175.5 72.5t72.5 175.5t-72.5 175.5t-175.5 72.5zM389 51q-28 -29 -64.5 -44t-76.5 -15q-83 0 -141.5 58.5t-58.5 141.5t58.5 141.5t141.5 58.5t141.5 -58.5t58.5 -141.5t-59 -141zM328 296
q-19 0 -36.5 -20.5t-19.5 -50.5q-1 -7 5.5 -8.5t9.5 3.5l9 17q13 22 32 22q6 0 12 -2.5t11 -7.5t8 -12l10 -17q3 -5 9 -3.5t6 8.5q-2 20 -11 36.5t-21 25.5t-24 9zM127 220l9 17q13 22 32 22q9 0 17.5 -6t14.5 -16l9 -17q3 -5 9 -3.5t6 8.5q-2 20 -11 36.5t-21 25.5t-24 9
q-19 0 -36.5 -20.5t-19.5 -50.5q-1 -7 5.5 -8.5t9.5 3.5zM362 160h-228q-7 0 -11 -4.5t-3 -10.5q6 -45 40.5 -75t80.5 -30h14q46 0 80.5 30t40.5 75q1 6 -3 10.5t-11 4.5z" />
    <glyph glyph-name="laugh-squint" unicode="&#xf59b;" horiz-adv-x="496" 
d="M248 440q-103 0 -175.5 -72.5t-72.5 -175.5t72.5 -175.5t175.5 -72.5t175.5 72.5t72.5 175.5t-72.5 175.5t-175.5 72.5zM389 51q-28 -29 -64.5 -44t-76.5 -15q-83 0 -141.5 58.5t-58.5 141.5t58.5 141.5t141.5 58.5t141.5 -58.5t58.5 -141.5t-59 -141zM344 252l33 40
q7 8 0 15.5t-15 2.5l-80 -48q-6 -3 -6 -10t6 -10l80 -48q8 -5 15 2.5t0 15.5zM134 194l80 48q6 3 6 10t-6 10l-80 48q-4 3 -8.5 2t-6.5 -4t-3 -7.5t3 -8.5l33 -40l-33 -40q-7 -8 -0.5 -15.5t15.5 -2.5zM362 160h-228q-7 0 -11 -4.5t-3 -10.5q6 -45 40.5 -75t80.5 -30h14
q46 0 80.5 30t40.5 75q1 6 -3 10.5t-11 4.5z" />
    <glyph glyph-name="laugh-wink" unicode="&#xf59c;" horiz-adv-x="496" 
d="M248 440q-103 0 -175.5 -72.5t-72.5 -175.5t72.5 -175.5t175.5 -72.5t175.5 72.5t72.5 175.5t-72.5 175.5t-175.5 72.5zM389 51q-28 -29 -64.5 -44t-76.5 -15q-83 0 -141.5 58.5t-58.5 141.5t58.5 141.5t141.5 58.5t141.5 -58.5t58.5 -141.5t-59 -141zM328 284
q-10 0 -20 -3t-18.5 -8.5t-14 -13.5t-7.5 -17q-1 -8 6.5 -12t13.5 1l9 9q12 10 31 10t30 -10l10 -9q6 -5 13.5 -1t6.5 12q-2 12 -11.5 22t-22.5 15t-26 5zM168 224q13 0 22.5 9.5t9.5 22.5t-9.5 22.5t-22.5 9.5t-22.5 -9.5t-9.5 -22.5t9.5 -22.5t22.5 -9.5zM362 160h-228
q-7 0 -11 -4.5t-3 -10.5q6 -45 40.5 -75t80.5 -30h14q46 0 80.5 30t40.5 75q1 6 -3 10.5t-11 4.5z" />
    <glyph glyph-name="meh-blank" unicode="&#xf5a4;" horiz-adv-x="496" 
d="M248 440q-103 0 -175.5 -72.5t-72.5 -175.5t72.5 -175.5t175.5 -72.5t175.5 72.5t72.5 175.5t-72.5 175.5t-175.5 72.5zM248 -8q-83 0 -141.5 58.5t-58.5 141.5t58.5 141.5t141.5 58.5t141.5 -58.5t58.5 -141.5t-58.5 -141.5t-141.5 -58.5zM168 272q-13 0 -22.5 -9.5
t-9.5 -22.5t9.5 -22.5t22.5 -9.5t22.5 9.5t9.5 22.5t-9.5 22.5t-22.5 9.5zM328 272q-13 0 -22.5 -9.5t-9.5 -22.5t9.5 -22.5t22.5 -9.5t22.5 9.5t9.5 22.5t-9.5 22.5t-22.5 9.5z" />
    <glyph glyph-name="meh-rolling-eyes" unicode="&#xf5a5;" horiz-adv-x="496" 
d="M248 440q-103 0 -175.5 -72.5t-72.5 -175.5t72.5 -175.5t175.5 -72.5t175.5 72.5t72.5 175.5t-72.5 175.5t-175.5 72.5zM248 -8q-83 0 -141.5 58.5t-58.5 141.5t58.5 141.5t141.5 58.5t141.5 -58.5t58.5 -141.5t-58.5 -141.5t-141.5 -58.5zM336 296q-30 0 -51 -21
t-21 -51t21 -51t51 -21t51 21t21 51t-21 51t-51 21zM336 184q-17 0 -28.5 11.5t-11.5 28.5q0 10 5 18.5t13 13.5q-2 -4 -2 -8q0 -10 7 -17t17 -7t17 7t7 17q0 2 -0.5 4t-1.5 4q18 -12 18 -32q0 -17 -11.5 -28.5t-28.5 -11.5zM232 224q0 30 -21 51t-51 21t-51 -21t-21 -51
t21 -51t51 -21t51 21t21 51zM120 224q0 20 18 32q-2 -4 -2 -8q0 -10 7 -17t17 -7t17 7t7 17q0 4 -2 8q18 -12 18 -32q0 -17 -11.5 -28.5t-28.5 -11.5t-28.5 11.5t-11.5 28.5zM312 96h-128q-10 0 -17 -7t-7 -17t7 -17t17 -7h128q10 0 17 7t7 17t-7 17t-17 7z" />
    <glyph glyph-name="sad-cry" unicode="&#xf5b3;" horiz-adv-x="496" 
d="M248 440q-103 0 -175.5 -72.5t-72.5 -175.5t72.5 -175.5t175.5 -72.5t175.5 72.5t72.5 175.5t-72.5 175.5t-175.5 72.5zM392 54v114q0 10 -7 17t-17 7t-17 -7t-7 -17v-151q-45 -25 -96 -25t-96 25v151q0 10 -7 17t-17 7t-17 -7t-7 -17v-114q-56 58 -56 138
q0 83 58.5 141.5t141.5 58.5t141.5 -58.5t58.5 -141.5q0 -80 -56 -138zM205.5 213.5q7.5 4.5 6.5 12.5q-2 12 -11.5 22t-22.5 15t-26 5t-26 -5t-22.5 -15t-11.5 -22q0 -3 0.5 -5t2 -4t3.5 -3t4 -1.5t3.5 -0.5t3.5 1t3 2l10 9q11 10 30 10t31 -10l9 -9q6 -6 13.5 -1.5z
M344 268q-20 0 -38.5 -12t-21.5 -30q0 -4 1.5 -7.5t4.5 -4.5q2 -1 4 -1.5t3.5 -0.5t3.5 1t3 2l10 9q11 10 30 10t30 -10l10 -9q2 -2 5.5 -2.5t8.5 1.5q7 4 6 12q-3 18 -21.5 30t-38.5 12zM248 176q-23 0 -39.5 -19t-16.5 -45t16.5 -45t39.5 -19t39.5 19t16.5 45t-16.5 45
t-39.5 19z" />
    <glyph glyph-name="sad-tear" unicode="&#xf5b4;" horiz-adv-x="496" 
d="M248 440q-103 0 -175.5 -72.5t-72.5 -175.5t72.5 -175.5t175.5 -72.5t175.5 72.5t72.5 175.5t-72.5 175.5t-175.5 72.5zM248 -8q-83 0 -141.5 58.5t-58.5 141.5t58.5 141.5t141.5 58.5t141.5 -58.5t58.5 -141.5t-58.5 -141.5t-141.5 -58.5zM256 144q-10 0 -17 -7t-7 -17
t7 -17t17 -7q12 0 23 -3.5t21 -10t18 -15.5q6 -7 15.5 -8t17.5 5t9 16t-5 18q-39 46 -99 46zM168 208q13 0 22.5 9.5t9.5 22.5t-9.5 22.5t-22.5 9.5t-22.5 -9.5t-9.5 -22.5t9.5 -22.5t22.5 -9.5zM328 272q-13 0 -22.5 -9.5t-9.5 -22.5t9.5 -22.5t22.5 -9.5t22.5 9.5
t9.5 22.5t-9.5 22.5t-22.5 9.5zM162 173q-8 -10 -14.5 -20.5t-14 -25t-7.5 -22.5q0 -17 12.5 -29t29.5 -12t29.5 12t12.5 29q0 19 -36 68q-2 2 -4 2.5t-4 0t-4 -2.5z" />
    <glyph glyph-name="smile-beam" unicode="&#xf5b8;" horiz-adv-x="496" 
d="M248 440q-103 0 -175.5 -72.5t-72.5 -175.5t72.5 -175.5t175.5 -72.5t175.5 72.5t72.5 175.5t-72.5 175.5t-175.5 72.5zM248 -8q-83 0 -141.5 58.5t-58.5 141.5t58.5 141.5t141.5 58.5t141.5 -58.5t58.5 -141.5t-58.5 -141.5t-141.5 -58.5zM332 135q-33 -39 -84 -39
t-84 39q-6 8 -16 9t-18 -6q-5 -4 -7 -10t-1 -12t5 -11q47 -57 121 -57t121 57q6 7 5 17t-8.5 16.5t-17.5 5.5t-16 -9zM136 237q13 22 32 22t32 -22l9 -17q3 -6 9.5 -4t5.5 9q-2 30 -19.5 50.5t-36.5 20.5q-12 0 -24 -9t-21 -25.5t-11 -36.5q1 -6 6 -9q6 -2 9 4zM328 296
q-19 0 -36.5 -20.5t-19.5 -50.5q0 -2 0.5 -4t2 -3t3.5 -2t5 0.5t4 3.5l9 17q13 22 32 22t32 -22l9 -17q3 -6 9.5 -4t5.5 9q-2 30 -19.5 50.5t-36.5 20.5z" />
    <glyph glyph-name="surprise" unicode="&#xf5c2;" horiz-adv-x="496" 
d="M248 440q-103 0 -175.5 -72.5t-72.5 -175.5t72.5 -175.5t175.5 -72.5t175.5 72.5t72.5 175.5t-72.5 175.5t-175.5 72.5zM248 -8q-83 0 -141.5 58.5t-58.5 141.5t58.5 141.5t141.5 58.5t141.5 -58.5t58.5 -141.5t-58.5 -141.5t-141.5 -58.5zM248 168q-26 0 -45 -19
t-19 -45t19 -45t45 -19t45 19t19 45t-19 45t-45 19zM200 240q0 13 -9.5 22.5t-22.5 9.5t-22.5 -9.5t-9.5 -22.5t9.5 -22.5t22.5 -9.5t22.5 9.5t9.5 22.5zM328 272q-13 0 -22.5 -9.5t-9.5 -22.5t9.5 -22.5t22.5 -9.5t22.5 9.5t9.5 22.5t-9.5 22.5t-22.5 9.5z" />
    <glyph glyph-name="tired" unicode="&#xf5c8;" horiz-adv-x="496" 
d="M248 440q-103 0 -175.5 -72.5t-72.5 -175.5t72.5 -175.5t175.5 -72.5t175.5 72.5t72.5 175.5t-72.5 175.5t-175.5 72.5zM248 -8q-83 0 -141.5 58.5t-58.5 141.5t58.5 141.5t141.5 58.5t141.5 -58.5t58.5 -141.5t-58.5 -141.5t-141.5 -58.5zM377.5 295.5
q-6.5 7.5 -15.5 2.5l-80 -48q-3 -1 -4.5 -4t-1.5 -6q0 -7 6 -10l80 -48q2 -2 5 -2t5.5 1t4.5 3q7 8 0 16l-33 40l33 40q7 8 0.5 15.5zM220 240q0 7 -6 10l-80 48q-8 5 -15 -2.5t0 -15.5l33 -40l-33 -40q-7 -8 -0.5 -15.5t15.5 -2.5l80 48q6 3 6 10zM248 176q-36 0 -69.5 -27
t-38.5 -66q-1 -9 4 -15t12 -3q17 7 41 11t51 4q57 0 92 -15q7 -3 12 3t4 15q-5 39 -38.5 66t-69.5 27z" />
  </font>
</defs>
</svg>
